# FlyGym 1.2.1 STL; B(x,y,z)=(x,z,y); winding reversed
v 0.00140393013 -0.0185686818 0.00151997365
v -0.00149956913 -0.0172541142 -0.000202962678
v 0.000862021898 -0.0191607993 5.49036372e-05
f 1 3 2
v -0.00157023751 -0.0158312745 0.000818468925
v -0.00149956913 -0.0172541142 -0.000202962678
v 0.000583313795 -0.0169361534 0.00206997265
f 4 6 5
v -0.00149956913 -0.0172541142 -0.000202962678
v -0.000881323376 -0.0177750248 -0.0010593104
v 0.000862021898 -0.0191607993 5.49036372e-05
f 7 9 8
v 0.000583313795 -0.0169361534 0.00206997265
v -0.00023718701 -0.0157549148 0.0019340916
v -0.00157023751 -0.0158312745 0.000818468925
f 10 12 11
v 0.00159547653 -0.0166585014 0.0030577281
v -0.00023718701 -0.0157549148 0.0019340916
v 0.000583313795 -0.0169361534 0.00206997265
f 13 15 14
v 0.000583313795 -0.0169361534 0.00206997265
v -0.00149956913 -0.0172541142 -0.000202962678
v 0.00140393013 -0.0185686818 0.00151997365
f 16 18 17
v -0.00163365639 -0.0142242949 0.00170948169
v -0.00292724253 -0.0111542387 0.00108118766
v -0.00298082796 -0.0140895296 -0.000130476701
f 19 21 20
v -0.00157023751 -0.0158312745 0.000818468925
v -0.00163365639 -0.0142242949 0.00170948169
v -0.00224372234 -0.015196907 0.00012662174
f 22 24 23
v -0.00298082796 -0.0140895296 -0.000130476701
v -0.00224372234 -0.015196907 0.00012662174
v -0.00163365639 -0.0142242949 0.00170948169
f 25 27 26
v -0.00224372234 -0.015196907 0.00012662174
v -0.00233676637 -0.016276633 -0.000860456748
v -0.00157023751 -0.0158312745 0.000818468925
f 28 30 29
v -0.00149956913 -0.0172541142 -0.000202962678
v -0.00157023751 -0.0158312745 0.000818468925
v -0.00233676637 -0.016276633 -0.000860456748
f 31 33 32
v -0.00363340332 -0.0119226257 -7.11482571e-06
v -0.00298082796 -0.0140895296 -0.000130476701
v -0.00292724253 -0.0111542387 0.00108118766
f 34 36 35
v -0.00292724253 -0.0111542387 0.00108118766
v 0.000327126259 -0.0123016202 0.00392224865
v -0.00268364965 -0.0103003869 0.0016494354
f 37 39 38
v -0.00292724253 -0.0111542387 0.00108118766
v -0.00422096491 -0.0105688305 -0.000766414723
v -0.00363340332 -0.0119226257 -7.11482571e-06
f 40 42 41
v -0.00268364965 -0.0103003869 0.0016494354
v -0.00404014718 -0.00921157698 0.00102789827
v -0.00422096491 -0.0105688305 -0.000766414723
f 43 45 44
v -0.00268364965 -0.0103003869 0.0016494354
v -0.00422096491 -0.0105688305 -0.000766414723
v -0.00292724253 -0.0111542387 0.00108118766
f 46 48 47
v 0.00103589191 -0.0107201529 0.00492420913
v -0.000423944812 -0.0108417895 0.00339883409
v 0.000327126259 -0.0123016202 0.00392224865
f 49 51 50
v -0.00157023751 -0.0158312745 0.000818468925
v -0.00023718701 -0.0157549148 0.0019340916
v -0.00163365639 -0.0142242949 0.00170948169
f 52 54 53
v -0.00163365639 -0.0142242949 0.00170948169
v -0.00023718701 -0.0157549148 0.0019340916
v -0.000559113641 -0.0138449293 0.00250113644
f 55 57 56
v -0.000559113641 -0.0138449293 0.00250113644
v -0.00292724253 -0.0111542387 0.00108118766
v -0.00163365639 -0.0142242949 0.00170948169
f 58 60 59
v -0.00023718701 -0.0157549148 0.0019340916
v 0.00159547653 -0.0166585014 0.0030577281
v -0.000559113641 -0.0138449293 0.00250113644
f 61 63 62
v 0.000327126259 -0.0123016202 0.00392224865
v -0.000423944812 -0.0108417895 0.00339883409
v -0.00268364965 -0.0103003869 0.0016494354
f 64 66 65
v -0.000559113641 -0.0138449293 0.00250113644
v 0.000327126259 -0.0123016202 0.00392224865
v -0.00292724253 -0.0111542387 0.00108118766
f 67 69 68
v -0.00456878442 -0.00804633455 0.000989575074
v -0.0049951559 -0.00620813225 -0.00107910555
v -0.00474068074 -0.00833910526 -8.63149353e-05
f 70 72 71
v -0.00456878442 -0.00804633455 0.000989575074
v -0.00487800098 -0.00548557764 0.000395996085
v -0.0049951559 -0.00620813225 -0.00107910555
f 73 75 74
v -0.00487800098 -0.00548557764 0.000395996085
v -0.0047421021 -0.00393650735 0.00102440163
v -0.0049951559 -0.00620813225 -0.00107910555
f 76 78 77
v -0.00410708635 -0.00532602244 0.00219303129
v -0.0047421021 -0.00393650735 0.00102440163
v -0.00487800098 -0.00548557764 0.000395996085
f 79 81 80
v 2.4152439e-05 -0.00738356321 0.00509759957
v 0.000450871175 -0.00670337467 0.00563619506
v -1.00580962e-05 -0.0060272323 0.0057660076
f 82 84 83
v 2.4152439e-05 -0.00738356321 0.00509759957
v 0.000934698528 -0.00720183816 0.00556404229
v 0.000450871175 -0.00670337467 0.00563619506
f 85 87 86
v 0.000286698582 -0.00644467291 0.00568527648
v 0.000318804041 -0.00550745863 0.00567519637
v 0.000286698582 -0.00644467291 0.00569332806
f 88 90 89
v 0.000286698582 -0.00644467291 0.00568527648
v 0.000327655198 -0.00648812202 0.00568764517
v 0.000318804041 -0.00550745863 0.00567519637
f 91 93 92
v 0.000327655198 -0.00648812202 0.00568764517
v 0.000286698582 -0.00644467291 0.00568527648
v 0.000286698582 -0.00644467291 0.00569332806
f 94 96 95
v 0.000450871175 -0.00670337467 0.00563619506
v 0.000286698582 -0.00644467291 0.00569332806
v 0.000286698582 -0.00644467291 0.00568527648
f 97 99 98
v 0.000450871175 -0.00670337467 0.00563619506
v 0.000327655198 -0.00648812202 0.00568764517
v 0.000286698582 -0.00644467291 0.00569332806
f 100 102 101
v 0.000327655198 -0.00648812202 0.00568764517
v 0.000450871175 -0.00670337467 0.00563619506
v 0.000318804041 -0.00550745863 0.00567519637
f 103 105 104
v 0.000450871175 -0.00670337467 0.00563619506
v 0.000934698528 -0.00720183816 0.00556404229
v 0.000318804041 -0.00550745863 0.00567519637
f 106 108 107
v -1.00580962e-05 -0.0060272323 0.0057660076
v 0.000286698582 -0.00644467291 0.00569332806
v 0.000318804041 -0.00550745863 0.00567519637
f 109 111 110
v -1.00580962e-05 -0.0060272323 0.0057660076
v 0.000450871175 -0.00670337467 0.00563619506
v 0.000286698582 -0.00644467291 0.00568527648
f 112 114 113
v -1.00580962e-05 -0.0060272323 0.0057660076
v 0.000286698582 -0.00644467291 0.00568527648
v 0.000286698582 -0.00644467291 0.00569332806
f 115 117 116
v -1.00580962e-05 -0.0060272323 0.0057660076
v 0.000318804041 -0.00550745863 0.00567519637
v -0.000586210672 -0.00442903511 0.00456129346
f 118 120 119
v -0.00362220671 -0.00796914028 0.00252576301
v -0.00187365677 -0.00832570076 0.00391325339
v -0.00279758133 -0.00677697535 0.00356341807
f 121 123 122
v -0.00279758133 -0.00677697535 0.00356341807
v -0.00410708635 -0.00532602244 0.00219303129
v -0.00362220671 -0.00796914028 0.00252576301
f 124 126 125
v -0.00279758133 -0.00677697535 0.00356341807
v -0.00117040117 -0.00586041424 0.00457827082
v -0.00280276035 -0.00335315053 0.00309781935
f 127 129 128
v -0.00268364965 -0.0103003869 0.0016494354
v -0.00296094022 -0.00900839004 0.00218252353
v -0.00404014718 -0.00921157698 0.00102789827
f 130 132 131
v -0.00456878442 -0.00804633455 0.000989575074
v -0.00362220671 -0.00796914028 0.00252576301
v -0.00487800098 -0.00548557764 0.000395996085
f 133 135 134
v -0.00456878442 -0.00804633455 0.000989575074
v -0.00296094022 -0.00900839004 0.00218252353
v -0.00362220671 -0.00796914028 0.00252576301
f 136 138 137
v -0.00456878442 -0.00804633455 0.000989575074
v -0.00474068074 -0.00833910526 -8.63149353e-05
v -0.00404014718 -0.00921157698 0.00102789827
f 139 141 140
v -0.00187365677 -0.00832570076 0.00391325339
v -0.00362220671 -0.00796914028 0.00252576301
v -0.00296094022 -0.00900839004 0.00218252353
f 142 144 143
v -0.00296094022 -0.00900839004 0.00218252353
v -0.00268364965 -0.0103003869 0.0016494354
v -0.00187365677 -0.00832570076 0.00391325339
f 145 147 146
v -0.00404014718 -0.00921157698 0.00102789827
v -0.00296094022 -0.00900839004 0.00218252353
v -0.00456878442 -0.00804633455 0.000989575074
f 148 150 149
v -0.00410708635 -0.00532602244 0.00219303129
v -0.00487800098 -0.00548557764 0.000395996085
v -0.00362220671 -0.00796914028 0.00252576301
f 151 153 152
v -0.000423944812 -0.0108417895 0.00339883409
v -1.68903199e-05 -0.0080523052 0.0050956889
v 2.4152439e-05 -0.00738356321 0.00509759957
f 154 156 155
v -0.00187365677 -0.00832570076 0.00391325339
v 2.4152439e-05 -0.00738356321 0.00509759957
v -0.00279758133 -0.00677697535 0.00356341807
f 157 159 158
v -0.00187365677 -0.00832570076 0.00391325339
v -0.00268364965 -0.0103003869 0.0016494354
v -0.000423944812 -0.0108417895 0.00339883409
f 160 162 161
v 0.00103589191 -0.0107201529 0.00492420913
v -1.68903199e-05 -0.0080523052 0.0050956889
v -0.000423944812 -0.0108417895 0.00339883409
f 163 165 164
v -0.000423944812 -0.0108417895 0.00339883409
v 2.4152439e-05 -0.00738356321 0.00509759957
v -0.00187365677 -0.00832570076 0.00391325339
f 166 168 167
v -0.00117040117 -0.00586041424 0.00457827082
v 2.4152439e-05 -0.00738356321 0.00509759957
v -1.00580962e-05 -0.0060272323 0.0057660076
f 169 171 170
v -0.00279758133 -0.00677697535 0.00356341807
v 2.4152439e-05 -0.00738356321 0.00509759957
v -0.00117040117 -0.00586041424 0.00457827082
f 172 174 173
v -1.00580962e-05 -0.0060272323 0.0057660076
v -0.000586210672 -0.00442903511 0.00456129346
v -0.00117040117 -0.00586041424 0.00457827082
f 175 177 176
v -0.000586210672 -0.00442903511 0.00456129346
v -0.00280276035 -0.00335315053 0.00309781935
v -0.00117040117 -0.00586041424 0.00457827082
f 178 180 179
v -0.00280276035 -0.00335315053 0.00309781935
v -0.00419547796 -0.00307479313 0.00117847485
v -0.0047421021 -0.00393650735 0.00102440163
f 181 183 182
v -0.00410708635 -0.00532602244 0.00219303129
v -0.00280276035 -0.00335315053 0.00309781935
v -0.0047421021 -0.00393650735 0.00102440163
f 184 186 185
v -0.00366097338 -0.00192221869 0.00141193404
v -0.00419547796 -0.00307479313 0.00117847485
v -0.00280276035 -0.00335315053 0.00309781935
f 187 189 188
v -0.00280276035 -0.00335315053 0.00309781935
v -0.00158028924 -0.00184038327 0.00327201997
v -0.00366097338 -0.00192221869 0.00141193404
f 190 192 191
v -0.00419547796 -0.00307479313 0.00117847485
v -0.00377153956 -0.00167688595 -0.000854073551
v -0.0047421021 -0.00393650735 0.00102440163
f 193 195 194
v -0.00366097338 -0.00192221869 0.00141193404
v -0.00289596192 -0.000943919986 0.000993352933
v -0.00377153956 -0.00167688595 -0.000854073551
f 196 198 197
v -0.00262140584 -0.000995392566 0.0014005821
v -0.00265262788 -0.000959822682 0.00141615637
v -0.00261317673 -0.000988070042 0.00146028497
f 199 201 200
v -0.00262140584 -0.000995392566 0.0014005821
v -0.00206550139 -0.00108340437 0.00205793222
v -0.00265262788 -0.000959822682 0.00141615637
f 202 204 203
v -0.00206550139 -0.00108340437 0.00205793222
v -0.00262140584 -0.000995392566 0.0014005821
v -0.00261317673 -0.000988070042 0.00146028497
f 205 207 206
v -0.00289596192 -0.000943919986 0.000993352933
v -0.00261317673 -0.000988070042 0.00146028497
v -0.00265262788 -0.000959822682 0.00141615637
f 208 210 209
v -0.00289596192 -0.000943919986 0.000993352933
v -0.00262140584 -0.000995392566 0.0014005821
v -0.00261317673 -0.000988070042 0.00146028497
f 211 213 212
v -0.00252731443 -0.00110359115 0.00153723067
v -0.00261317673 -0.000988070042 0.00146028497
v -0.00262140584 -0.000995392566 0.0014005821
f 214 216 215
v -0.00252731443 -0.00110359115 0.00153723067
v -0.00262140584 -0.000995392566 0.0014005821
v -0.00289596192 -0.000943919986 0.000993352933
f 217 219 218
v -0.00252731443 -0.00110359115 0.00153723067
v -0.00206550139 -0.00108340437 0.00205793222
v -0.00261317673 -0.000988070042 0.00146028497
f 220 222 221
v -0.00158028924 -0.00184038327 0.00327201997
v -0.00206550139 -0.00108340437 0.00205793222
v -0.00366097338 -0.00192221869 0.00141193404
f 223 225 224
v -0.00206550139 -0.00108340437 0.00205793222
v -0.00252731443 -0.00110359115 0.00153723067
v -0.00366097338 -0.00192221869 0.00141193404
f 226 228 227
v -0.00366097338 -0.00192221869 0.00141193404
v -0.00252731443 -0.00110359115 0.00153723067
v -0.00289596192 -0.000943919986 0.000993352933
f 229 231 230
v -0.00269614447 -0.000744410545 0.000228949898
v -0.00377153956 -0.00167688595 -0.000854073551
v -0.00289596192 -0.000943919986 0.000993352933
f 232 234 233
v -0.00206550139 -0.00108340437 0.00205793222
v -0.00269614447 -0.000744410545 0.000228949898
v -0.00289596192 -0.000943919986 0.000993352933
f 235 237 236
v -0.00206550139 -0.00108340437 0.00205793222
v -0.00289596192 -0.000943919986 0.000993352933
v -0.00265262788 -0.000959822682 0.00141615637
f 238 240 239
v -0.00280276035 -0.00335315053 0.00309781935
v -0.000387320961 -0.00234994313 0.00404097518
v -0.00158028924 -0.00184038327 0.00327201997
f 241 243 242
v -0.000586210672 -0.00442903511 0.00456129346
v -0.000387320961 -0.00234994313 0.00404097518
v -0.00280276035 -0.00335315053 0.00309781935
f 244 246 245
v 0.000318804041 -0.00550745863 0.00567519637
v 0.00149052521 -0.00277794006 0.00454385918
v -0.000586210672 -0.00442903511 0.00456129346
f 247 249 248
v -0.000387320961 -0.00234994313 0.00404097518
v 0.00149052521 -0.00277794006 0.00454385918
v 0.000247038975 -0.00192914376 0.00427558116
f 250 252 251
v -0.000955783071 -0.00136297022 0.00285040969
v -0.00134088041 -0.00141629789 0.00352821771
v -0.000652474955 -0.00157602371 0.00386230531
f 253 255 254
v -0.00158028924 -0.00184038327 0.00327201997
v 0.000247038975 -0.00192914376 0.00427558116
v -0.000652474955 -0.00157602371 0.00386230531
f 256 258 257
v 0.000247038975 -0.00192914376 0.00427558116
v -0.00158028924 -0.00184038327 0.00327201997
v -0.000387320961 -0.00234994313 0.00404097518
f 259 261 260
v 0.000247038975 -0.00192914376 0.00427558116
v -0.000955783071 -0.00136297022 0.00285040969
v -0.00065214972 -0.00155146299 0.00385913154
f 262 264 263
v -0.00134088041 -0.00141629789 0.00352821771
v -0.00065214972 -0.00155146299 0.00385913154
v -0.000652474955 -0.00157602371 0.00386230531
f 265 267 266
v -0.00158028924 -0.00184038327 0.00327201997
v -0.000652474955 -0.00157602371 0.00386230531
v -0.00065214972 -0.00155146299 0.00385913154
f 268 270 269
v -0.00158028924 -0.00184038327 0.00327201997
v -0.00065214972 -0.00155146299 0.00385913154
v -0.00134088041 -0.00141629789 0.00352821771
f 271 273 272
v 0.000247038975 -0.00192914376 0.00427558116
v -0.00065214972 -0.00155146299 0.00385913154
v -0.000652474955 -0.00157602371 0.00386230531
f 274 276 275
v -0.00065214972 -0.00155146299 0.00385913154
v -0.000955783071 -0.00136297022 0.00285040969
v -0.000652474955 -0.00157602371 0.00386230531
f 277 279 278
v -0.000955783071 -0.00136297022 0.00285040969
v -0.00158970342 -0.0011182382 0.00249611985
v -0.00158970342 -0.00113701162 0.00249611985
f 280 282 281
v -0.00158970342 -0.0011182382 0.00249611985
v -0.00134088041 -0.00141629789 0.00352821771
v -0.00158970342 -0.00113701162 0.00249611985
f 283 285 284
v -0.00134088041 -0.00141629789 0.00352821771
v -0.000955783071 -0.00136297022 0.00285040969
v -0.00158970342 -0.00113701162 0.00249611985
f 286 288 287
v -0.00206550139 -0.00108340437 0.00205793222
v -0.00158970342 -0.00113701162 0.00249611985
v -0.00158970342 -0.0011182382 0.00249611985
f 289 291 290
v -0.00158970342 -0.0011182382 0.00249611985
v -0.000955783071 -0.00136297022 0.00285040969
v -0.00206550139 -0.00108340437 0.00205793222
f 292 294 293
v -0.00158028924 -0.00184038327 0.00327201997
v -0.00134088041 -0.00141629789 0.00352821771
v -0.00158970342 -0.0011182382 0.00249611985
f 295 297 296
v -0.00158028924 -0.00184038327 0.00327201997
v -0.00158970342 -0.0011182382 0.00249611985
v -0.00158970342 -0.00113701162 0.00249611985
f 298 300 299
v -0.00158028924 -0.00184038327 0.00327201997
v -0.00158970342 -0.00113701162 0.00249611985
v -0.00206550139 -0.00108340437 0.00205793222
f 301 303 302
v -0.000955783071 -0.00136297022 0.00285040969
v -0.000659185207 -0.000737865957 -0.00189840321
v -0.00206550139 -0.00108340437 0.00205793222
f 304 306 305
v -0.000955783071 -0.00136297022 0.00285040969
v 0.00109175362 -0.00129994942 -0.000262827621
v -0.000659185207 -0.000737865957 -0.00189840321
f 307 309 308
v -0.00366097338 -0.00192221869 0.00141193404
v -0.00377153956 -0.00167688595 -0.000854073551
v -0.00419547796 -0.00307479313 0.00117847485
f 310 312 311
v -0.00410708635 -0.00532602244 0.00219303129
v -0.00279758133 -0.00677697535 0.00356341807
v -0.00280276035 -0.00335315053 0.00309781935
f 313 315 314
v -0.00233676637 -0.016276633 -0.000860456748
v -0.00265854796 -0.015207415 -0.00165036035
v -0.00180845691 -0.015294741 -0.00347281311
f 316 318 317
v -0.00149956913 -0.0172541142 -0.000202962678
v -0.00233676637 -0.016276633 -0.000860456748
v -0.000881323376 -0.0177750248 -0.0010593104
f 319 321 320
v -0.000881323376 -0.0177750248 -0.0010593104
v -0.000685638906 -0.0174378089 -0.00317774138
v 0.00162338802 -0.0198089663 -0.0012806905
f 322 324 323
v -0.00163929271 -0.0161909498 -0.00300922329
v -0.000634720163 -0.0164183075 -0.00411514811
v -0.000685638906 -0.0174378089 -0.00317774138
f 325 327 326
v -0.000685638906 -0.0174378089 -0.00317774138
v -0.000634720163 -0.0164183075 -0.00411514811
v 0.000783886117 -0.0183256401 -0.00322671403
f 328 330 329
v -0.00233676637 -0.016276633 -0.000860456748
v -0.00180845691 -0.015294741 -0.00347281311
v -0.00163929271 -0.0161909498 -0.00300922329
f 331 333 332
v -0.00163929271 -0.0161909498 -0.00300922329
v -0.00180845691 -0.015294741 -0.00347281311
v -0.000634720163 -0.0164183075 -0.00411514811
f 334 336 335
v -0.000634720163 -0.0164183075 -0.00411514811
v -0.00180845691 -0.015294741 -0.00347281311
v 0.000368283759 -0.0161725984 -0.00497976034
f 337 339 338
v -0.000685638906 -0.0174378089 -0.00317774138
v 0.000783886117 -0.0183256401 -0.00322671403
v 0.00162338802 -0.0198089663 -0.0012806905
f 340 342 341
v -0.0011153531 -0.0142824909 -0.0047315767
v 0.00149864927 -0.0150320979 -0.00543918359
v 0.000368283759 -0.0161725984 -0.00497976034
f 343 345 344
v 0.000783886117 -0.0183256401 -0.00322671403
v -0.000634720163 -0.0164183075 -0.00411514811
v 0.000368283759 -0.0161725984 -0.00497976034
f 346 348 347
v 0.000368283759 -0.0161725984 -0.00497976034
v 0.00149864927 -0.0150320979 -0.00543918359
v 0.00282787842 -0.016917137 -0.00457834976
f 349 351 350
v 0.000783886117 -0.0183256401 -0.00322671403
v 0.000368283759 -0.0161725984 -0.00497976034
v 0.00311238073 -0.0192021456 -0.00275054153
f 352 354 353
v -0.00233676637 -0.016276633 -0.000860456748
v -0.00163929271 -0.0161909498 -0.00300922329
v -0.000881323376 -0.0177750248 -0.0010593104
f 355 357 356
v -0.000881323376 -0.0177750248 -0.0010593104
v -0.00163929271 -0.0161909498 -0.00300922329
v -0.000685638906 -0.0174378089 -0.00317774138
f 358 360 359
v 0.000862021898 -0.0191607993 5.49036372e-05
v -0.000881323376 -0.0177750248 -0.0010593104
v 0.00162338802 -0.0198089663 -0.0012806905
f 361 363 362
v -0.00298082796 -0.0140895296 -0.000130476701
v -0.00265854796 -0.015207415 -0.00165036035
v -0.00224372234 -0.015196907 0.00012662174
f 364 366 365
v -0.00224372234 -0.015196907 0.00012662174
v -0.00265854796 -0.015207415 -0.00165036035
v -0.00233676637 -0.016276633 -0.000860456748
f 367 369 368
v -0.00265854796 -0.015207415 -0.00165036035
v -0.00298082796 -0.0140895296 -0.000130476701
v -0.00360577214 -0.0129265492 -0.0022522283
f 370 372 371
v -0.00265854796 -0.015207415 -0.00165036035
v -0.00240198515 -0.0147008352 -0.00331322299
v -0.00180845691 -0.015294741 -0.00347281311
f 373 375 374
v -0.00363340332 -0.0119226257 -7.11482571e-06
v -0.00422096491 -0.0105688305 -0.000766414723
v -0.00298082796 -0.0140895296 -0.000130476701
f 376 378 377
v -0.00298082796 -0.0140895296 -0.000130476701
v -0.00422096491 -0.0105688305 -0.000766414723
v -0.00360577214 -0.0129265492 -0.0022522283
f 379 381 380
v -0.00400160388 -0.0113029942 -0.00193907363
v -0.00290103399 -0.0123622274 -0.00365912274
v -0.00360577214 -0.0129265492 -0.0022522283
f 382 384 383
v -0.00400160388 -0.0113029942 -0.00193907363
v -0.00360577214 -0.0129265492 -0.0022522283
v -0.00422096491 -0.0105688305 -0.000766414723
f 385 387 386
v -0.00400160388 -0.0113029942 -0.00193907363
v -0.00422096491 -0.0105688305 -0.000766414723
v -0.00423365091 -0.00997776442 -0.00245938481
f 388 390 389
v -0.00180845691 -0.015294741 -0.00347281311
v -0.00240198515 -0.0147008352 -0.00331322299
v -0.0011153531 -0.0142824909 -0.0047315767
f 391 393 392
v -0.00240198515 -0.0147008352 -0.00331322299
v -0.00151909935 -0.0119709388 -0.00512164916
v -0.0011153531 -0.0142824909 -0.0047315767
f 394 396 395
v -0.00290103399 -0.0123622274 -0.00365912274
v -0.00151909935 -0.0119709388 -0.00512164916
v -0.00240198515 -0.0147008352 -0.00331322299
f 397 399 398
v -0.00265854796 -0.015207415 -0.00165036035
v -0.00360577214 -0.0129265492 -0.0022522283
v -0.00240198515 -0.0147008352 -0.00331322299
f 400 402 401
v -0.00360577214 -0.0129265492 -0.0022522283
v -0.00290103399 -0.0123622274 -0.00365912274
v -0.00240198515 -0.0147008352 -0.00331322299
f 403 405 404
v -0.00400160388 -0.0113029942 -0.00193907363
v -0.00333874486 -0.0109412889 -0.00361699749
v -0.00290103399 -0.0123622274 -0.00365912274
f 406 408 407
v -0.00423365091 -0.00997776442 -0.00245938481
v -0.00333874486 -0.0109412889 -0.00361699749
v -0.00400160388 -0.0113029942 -0.00193907363
f 409 411 410
v -0.00333874486 -0.0109412889 -0.00361699749
v -0.00151909935 -0.0119709388 -0.00512164916
v -0.00290103399 -0.0123622274 -0.00365912274
f 412 414 413
v -0.0011153531 -0.0142824909 -0.0047315767
v -0.00151909935 -0.0119709388 -0.00512164916
v 0.000142038618 -0.0129458582 -0.00552253077
f 415 417 416
v 0.000142038618 -0.0129458582 -0.00552253077
v 0.00149864927 -0.0150320979 -0.00543918359
v -0.0011153531 -0.0142824909 -0.0047315767
f 418 420 419
v -0.00151909935 -0.0119709388 -0.00512164916
v -0.00111270429 -0.008512161 -0.00573832622
v 0.000138147698 -0.0118827906 -0.00588744442
f 421 423 422
v 0.000142038618 -0.0129458582 -0.00552253077
v 0.000138147698 -0.0118827906 -0.00588744442
v 0.00173570643 -0.0131292923 -0.00573650068
f 424 426 425
v -0.00111270429 -0.008512161 -0.00573832622
v 0.00150148253 -0.0105254927 -0.00613567972
v 0.000138147698 -0.0118827906 -0.00588744442
f 427 429 428
v 0.000142038618 -0.0129458582 -0.00552253077
v -0.00151909935 -0.0119709388 -0.00512164916
v 0.000138147698 -0.0118827906 -0.00588744442
f 430 432 431
v 0.000368283759 -0.0161725984 -0.00497976034
v -0.00180845691 -0.015294741 -0.00347281311
v -0.0011153531 -0.0142824909 -0.0047315767
f 433 435 434
v -0.00404014718 -0.00921157698 0.00102789827
v -0.00482194009 -0.00956915974 -0.00032587177
v -0.00422096491 -0.0105688305 -0.000766414723
f 436 438 437
v -0.00482194009 -0.00956915974 -0.00032587177
v -0.00404014718 -0.00921157698 0.00102789827
v -0.00474068074 -0.00833910526 -8.63149353e-05
f 439 441 440
v -0.00482194009 -0.00956915974 -0.00032587177
v -0.00474068074 -0.00833910526 -8.63149353e-05
v -0.00483933072 -0.00876664344 -0.00160987638
f 442 444 443
v -0.00474068074 -0.00833910526 -8.63149353e-05
v -0.0049951559 -0.00620813225 -0.00107910555
v -0.00483933072 -0.00876664344 -0.00160987638
f 445 447 446
v -0.00483933072 -0.00876664344 -0.00160987638
v -0.00423365091 -0.00997776442 -0.00245938481
v -0.00482194009 -0.00956915974 -0.00032587177
f 448 450 449
v -0.00443584613 -0.00448647152 -0.00275911152
v -0.00313945748 -0.00796617896 -0.00392103466
v -0.004783248 -0.00706031497 -0.00216269746
f 451 453 452
v -0.0049951559 -0.00620813225 -0.00107910555
v -0.00443584613 -0.00448647152 -0.00275911152
v -0.004783248 -0.00706031497 -0.00216269746
f 454 456 455
v -0.00483933072 -0.00876664344 -0.00160987638
v -0.0049951559 -0.00620813225 -0.00107910555
v -0.004783248 -0.00706031497 -0.00216269746
f 457 459 458
v -0.0047421021 -0.00393650735 0.00102440163
v -0.00477168614 -0.00396655269 -0.00171136835
v -0.0049951559 -0.00620813225 -0.00107910555
f 460 462 461
v -0.0049951559 -0.00620813225 -0.00107910555
v -0.00477168614 -0.00396655269 -0.00171136835
v -0.00443584613 -0.00448647152 -0.00275911152
f 463 465 464
v -0.00422096491 -0.0105688305 -0.000766414723
v -0.00482194009 -0.00956915974 -0.00032587177
v -0.00423365091 -0.00997776442 -0.00245938481
f 466 468 467
v -0.00423365091 -0.00997776442 -0.00245938481
v -0.00483933072 -0.00876664344 -0.00160987638
v -0.00332358686 -0.00910871022 -0.00391326503
f 469 471 470
v -0.00483933072 -0.00876664344 -0.00160987638
v -0.004783248 -0.00706031497 -0.00216269746
v -0.00332358686 -0.00910871022 -0.00391326503
f 472 474 473
v -0.00423365091 -0.00997776442 -0.00245938481
v -0.00332358686 -0.00910871022 -0.00391326503
v -0.00333874486 -0.0109412889 -0.00361699749
f 475 477 476
v -0.00332358686 -0.00910871022 -0.00391326503
v -0.00111270429 -0.008512161 -0.00573832622
v -0.00333874486 -0.0109412889 -0.00361699749
f 478 480 479
v -0.00333874486 -0.0109412889 -0.00361699749
v -0.00111270429 -0.008512161 -0.00573832622
v -0.00151909935 -0.0119709388 -0.00512164916
f 481 483 482
v -0.00313945748 -0.00796617896 -0.00392103466
v -0.00111270429 -0.008512161 -0.00573832622
v -0.00332358686 -0.00910871022 -0.00391326503
f 484 486 485
v -0.004783248 -0.00706031497 -0.00216269746
v -0.00313945748 -0.00796617896 -0.00392103466
v -0.00332358686 -0.00910871022 -0.00391326503
f 487 489 488
v -0.00313945748 -0.00796617896 -0.00392103466
v -0.00298346731 -0.00468453945 -0.00437312738
v -0.000692549247 -0.00652372109 -0.00552119091
f 490 492 491
v -0.00313945748 -0.00796617896 -0.00392103466
v -0.00443584613 -0.00448647152 -0.00275911152
v -0.00298346731 -0.00468453945 -0.00437312738
f 493 495 494
v -0.0047421021 -0.00393650735 0.00102440163
v -0.00377153956 -0.00167688595 -0.000854073551
v -0.00477168614 -0.00396655269 -0.00171136835
f 496 498 497
v -0.00377153956 -0.00167688595 -0.000854073551
v -0.00339046419 -0.00195494613 -0.00250138855
v -0.00477168614 -0.00396655269 -0.00171136835
f 499 501 500
v -0.00268689928 -0.000722942923 -0.00137960651
v -0.00339046419 -0.00195494613 -0.00250138855
v -0.00377153956 -0.00167688595 -0.000854073551
f 502 504 503
v -0.00269614447 -0.000744410545 0.000228949898
v -0.00268689928 -0.000722942923 -0.00137960651
v -0.00377153956 -0.00167688595 -0.000854073551
f 505 507 506
v -0.00206550139 -0.00108340437 0.00205793222
v -0.00268689928 -0.000722942923 -0.00137960651
v -0.00269614447 -0.000744410545 0.000228949898
f 508 510 509
v -0.00178348746 -0.000511018152 -0.0017026925
v -0.00268689928 -0.000722942923 -0.00137960651
v -0.00206550139 -0.00108340437 0.00205793222
f 511 513 512
v -0.00268689928 -0.000722942923 -0.00137960651
v -0.00168387814 -0.00106039925 -0.00294437414
v -0.00339046419 -0.00195494613 -0.00250138855
f 514 516 515
v -0.00178348746 -0.000511018152 -0.0017026925
v -0.00168387814 -0.00106039925 -0.00294437414
v -0.00268689928 -0.000722942923 -0.00137960651
f 517 519 518
v -0.00443584613 -0.00448647152 -0.00275911152
v -0.00321392945 -0.00314937897 -0.00376837052
v -0.00298346731 -0.00468453945 -0.00437312738
f 520 522 521
v -0.00339046419 -0.00195494613 -0.00250138855
v -0.00206847271 -0.00300336396 -0.00448403807
v -0.00321392945 -0.00314937897 -0.00376837052
f 523 525 524
v -0.00443584613 -0.00448647152 -0.00275911152
v -0.00339046419 -0.00195494613 -0.00250138855
v -0.00321392945 -0.00314937897 -0.00376837052
f 526 528 527
v -0.00321392945 -0.00314937897 -0.00376837052
v -0.00206847271 -0.00300336396 -0.00448403807
v -0.00298346731 -0.00468453945 -0.00437312738
f 529 531 530
v -0.00298346731 -0.00468453945 -0.00437312738
v -0.00206847271 -0.00300336396 -0.00448403807
v -0.000692549247 -0.00652372109 -0.00552119091
f 532 534 533
v -0.00168387814 -0.00106039925 -0.00294437414
v -0.00178348746 -0.000511018152 -0.0017026925
v -0.00150024889 -0.000402873366 -0.00191170275
f 535 537 536
v -0.00178348746 -0.000511018152 -0.0017026925
v -0.00100646785 -0.000528578994 -0.0021924543
v -0.00150024889 -0.000402873366 -0.00191170275
f 538 540 539
v -0.000659185207 -0.000737865957 -0.00189840321
v -0.000732291073 -0.000594972107 -0.00239409019
v -0.00100646785 -0.000528578994 -0.0021924543
f 541 543 542
v -0.000315058787 -0.000700973897 -0.00261345704
v -0.000112798705 -0.000716788873 -0.00272225388
v -0.000732291073 -0.000594972107 -0.00239409019
f 544 546 545
v 0.000658130693 -0.000797960274 -0.00297155111
v -0.000112798705 -0.000716788873 -0.00272225388
v -0.000315058764 -0.000690381557 -0.00261345704
f 547 549 548
v -0.000659185207 -0.000737865957 -0.00189840321
v -0.000315058764 -0.000690381557 -0.00261345704
v -0.000732291073 -0.000594972107 -0.00239409019
f 550 552 551
v -0.000315058787 -0.000700973897 -0.00261345704
v -0.000315058764 -0.000690381557 -0.00261345704
v -0.000112798705 -0.000716788873 -0.00272225388
f 553 555 554
v -0.000732291073 -0.000594972107 -0.00239409019
v -0.000315058764 -0.000690381557 -0.00261345704
v -0.000315058787 -0.000700973897 -0.00261345704
f 556 558 557
v -0.000315058787 -0.000700973897 -0.00261345704
v -0.000315058764 -0.000690381557 -0.00261345704
v -0.000659185207 -0.000737865957 -0.00189840321
f 559 561 560
v -0.000315058787 -0.000700973897 -0.00261345704
v 0.000658130693 -0.000797960274 -0.00297155111
v -0.000315058764 -0.000690381557 -0.00261345704
f 562 564 563
v 0.000658130693 -0.000797960274 -0.00297155111
v -0.000315058787 -0.000700973897 -0.00261345704
v -0.000659185207 -0.000737865957 -0.00189840321
f 565 567 566
v -0.000659185207 -0.000737865957 -0.00189840321
v 0.00109175362 -0.00129994942 -0.000262827621
v 0.000658130693 -0.000797960274 -0.00297155111
f 568 570 569
v 0.0015403908 -0.000732689159 -0.00253515118
v 0.000658130693 -0.000797960274 -0.00297155111
v 0.00109175362 -0.00129994942 -0.000262827621
f 571 573 572
v -0.000732291073 -0.000594972107 -0.00239409019
v -0.000112798705 -0.000716788873 -0.00272225388
v -0.00168387814 -0.00106039925 -0.00294437414
f 574 576 575
v -0.00100646785 -0.00053440267 -0.0021924543
v -0.00100646785 -0.000528578994 -0.0021924543
v -0.00178348746 -0.000511018152 -0.0017026925
f 577 579 578
v -0.00100646785 -0.00053440267 -0.0021924543
v -0.00178348746 -0.000511018152 -0.0017026925
v -0.000659185207 -0.000737865957 -0.00189840321
f 580 582 581
v -0.00150024889 -0.000402873366 -0.00191170275
v -0.00100646785 -0.000528578994 -0.0021924543
v -0.00100646785 -0.00053440267 -0.0021924543
f 583 585 584
v -0.00150024889 -0.000402873366 -0.00191170275
v -0.00100646785 -0.00053440267 -0.0021924543
v -0.000732291073 -0.000594972107 -0.00239409019
f 586 588 587
v -0.00100646785 -0.00053440267 -0.0021924543
v -0.00100646785 -0.000528578994 -0.0021924543
v -0.000732291073 -0.000594972107 -0.00239409019
f 589 591 590
v -0.00100646785 -0.00053440267 -0.0021924543
v -0.000659185207 -0.000737865957 -0.00189840321
v -0.00100646785 -0.000528578994 -0.0021924543
f 592 594 593
v -0.00150024889 -0.000402873366 -0.00191170275
v -0.000732291073 -0.000594972107 -0.00239409019
v -0.00168387814 -0.00106039925 -0.00294437414
f 595 597 596
v 0.000541032932 -0.00139080894 -0.00404198618
v -0.00206847271 -0.00300336396 -0.00448403807
v -0.00168387814 -0.00106039925 -0.00294437414
f 598 600 599
v 0.000541032932 -0.00139080894 -0.00404198618
v 0.000442451665 -0.00347813148 -0.00538231143
v -0.00206847271 -0.00300336396 -0.00448403807
f 601 603 602
v -0.000112798705 -0.000716788873 -0.00272225388
v 0.000658130693 -0.000797960274 -0.00297155111
v -0.00168387814 -0.00106039925 -0.00294437414
f 604 606 605
v 0.000658130693 -0.000797960274 -0.00297155111
v 0.000541032932 -0.00139080894 -0.00404198618
v -0.00168387814 -0.00106039925 -0.00294437414
f 607 609 608
v 0.000541032932 -0.00139080894 -0.00404198618
v 0.000658130693 -0.000797960274 -0.00297155111
v 0.00184204582 -0.00179824237 -0.00417260017
f 610 612 611
v -0.00339046419 -0.00195494613 -0.00250138855
v -0.00168387814 -0.00106039925 -0.00294437414
v -0.00206847271 -0.00300336396 -0.00448403807
f 613 615 614
v -0.000692549247 -0.00652372109 -0.00552119091
v 0.00165143629 -0.00849443168 -0.00588319999
v -0.00111270429 -0.008512161 -0.00573832622
f 616 618 617
v -0.00111270429 -0.008512161 -0.00573832622
v -0.00313945748 -0.00796617896 -0.00392103466
v -0.000692549247 -0.00652372109 -0.00552119091
f 619 621 620
v -0.000692549247 -0.00652372109 -0.00552119091
v -0.00206847271 -0.00300336396 -0.00448403807
v -0.000260447609 -0.00593535951 -0.0057652629
f 622 624 623
v -0.000260447609 -0.00593535951 -0.0057652629
v 0.00165143629 -0.00849443168 -0.00588319999
v -0.000692549247 -0.00652372109 -0.00552119091
f 625 627 626
v 0.000442451665 -0.00347813148 -0.00538231143
v 0.00145147833 -0.00721444085 -0.0060175531
v -0.000260447609 -0.00593535951 -0.0057652629
f 628 630 629
v -0.000260447609 -0.00593535951 -0.0057652629
v -0.00206847271 -0.00300336396 -0.00448403807
v 0.000442451665 -0.00347813148 -0.00538231143
f 631 633 632
v -0.00477168614 -0.00396655269 -0.00171136835
v -0.00339046419 -0.00195494613 -0.00250138855
v -0.00443584613 -0.00448647152 -0.00275911152
f 634 636 635
v 0.00247970911 -0.014866468 0.00488643273
v 0.00350482405 -0.0130676766 0.00569325493
v 0.00282594847 -0.0111936715 0.00566227609
f 637 639 638
v 0.00282594847 -0.0111936715 0.00566227609
v 0.00350482405 -0.0130676766 0.00569325493
v 0.00305552858 -0.0104841216 0.00610884163
f 640 642 641
v 0.00282594847 -0.0111936715 0.00566227609
v 0.00305552858 -0.0104841216 0.00610884163
v 0.00215737655 -0.0103732331 0.00583983347
f 643 645 644
v 0.00305552858 -0.0104841216 0.00610884163
v 0.00309306015 -0.00978623211 0.00592961223
v 0.00215737655 -0.0103732331 0.00583983347
f 646 648 647
v 0.00450316402 -0.0149883577 0.00525254181
v 0.00487207981 -0.0130633518 0.00551877492
v 0.00350482405 -0.0130676766 0.00569325493
f 649 651 650
v 0.00350482405 -0.0130676766 0.00569325493
v 0.00487207981 -0.0130633518 0.00551877492
v 0.00496682042 -0.0119335156 0.0060439339
f 652 654 653
v 0.00487207981 -0.0130633518 0.00551877492
v 0.00563345493 -0.0124786893 0.00479899754
v 0.00496682042 -0.0119335156 0.0060439339
f 655 657 656
v 0.00350482405 -0.0130676766 0.00569325493
v 0.00496682042 -0.0119335156 0.0060439339
v 0.00305552858 -0.0104841216 0.00610884163
f 658 660 659
v 0.00496682042 -0.0119335156 0.0060439339
v 0.00481071038 -0.0105433464 0.00606144604
v 0.00305552858 -0.0104841216 0.00610884163
f 661 663 662
v 0.00563345493 -0.0124786893 0.00479899754
v 0.00581510976 -0.0108574051 0.00509287638
v 0.00496682042 -0.0119335156 0.0060439339
f 664 666 665
v 0.00481071038 -0.0105433464 0.00606144604
v 0.00496682042 -0.0119335156 0.0060439339
v 0.00581510976 -0.0108574051 0.00509287638
f 667 669 668
v 0.00159547653 -0.0166585014 0.0030577281
v 0.00140393013 -0.0185686818 0.00151997365
v 0.00228364752 -0.0180344694 0.00261659698
f 670 672 671
v 0.00159547653 -0.0166585014 0.0030577281
v 0.00228364752 -0.0180344694 0.00261659698
v 0.00391902104 -0.0172491316 0.00344392829
f 673 675 674
v 0.00325521723 -0.0194465945 0.00120044542
v 0.00140393013 -0.0185686818 0.00151997365
v 0.000862021898 -0.0191607993 5.49036372e-05
f 676 678 677
v 0.00228364752 -0.0180344694 0.00261659698
v 0.00140393013 -0.0185686818 0.00151997365
v 0.00356747114 -0.0186204576 0.00221633218
f 679 681 680
v 0.00140393013 -0.0185686818 0.00151997365
v 0.00325521723 -0.0194465945 0.00120044542
v 0.00356747114 -0.0186204576 0.00221633218
f 682 684 683
v 0.00325521723 -0.0194465945 0.00120044542
v 0.000862021898 -0.0191607993 5.49036372e-05
v 0.00162338802 -0.0198089663 -0.0012806905
f 685 687 686
v 0.00162338802 -0.0198089663 -0.0012806905
v 0.00229259131 -0.0198675873 -0.00159088868
v 0.00325521723 -0.0194465945 0.00120044542
f 688 690 689
v 0.00391902104 -0.0172491316 0.00344392829
v 0.00525070536 -0.0157129994 0.00368506517
v 0.0041029256 -0.0154472087 0.00508097401
f 691 693 692
v 0.00473568907 -0.017735883 0.00253675153
v 0.00498810623 -0.0167916864 0.00276071914
v 0.00391902104 -0.0172491316 0.00344392829
f 694 696 695
v 0.00391902104 -0.0172491316 0.00344392829
v 0.0041029256 -0.0154472087 0.00508097401
v 0.00159547653 -0.0166585014 0.0030577281
f 697 699 698
v 0.00391902104 -0.0172491316 0.00344392829
v 0.00498810623 -0.0167916864 0.00276071914
v 0.00525070536 -0.0157129994 0.00368506517
f 700 702 701
v 0.00546192205 -0.0155395843 0.000964204537
v 0.00541385343 -0.0148181542 0.00376117714
v 0.00525070536 -0.0157129994 0.00368506517
f 703 705 704
v 0.00325521723 -0.0194465945 0.00120044542
v 0.00473568907 -0.017735883 0.00253675153
v 0.00356747114 -0.0186204576 0.00221633218
f 706 708 707
v 0.00440417243 -0.0194080814 0.000385315616
v 0.00473568907 -0.017735883 0.00253675153
v 0.00325521723 -0.0194465945 0.00120044542
f 709 711 710
v 0.00440417243 -0.0194080814 0.000385315616
v 0.00521547263 -0.0173995912 0.00145029981
v 0.00473568907 -0.017735883 0.00253675153
f 712 714 713
v 0.00450672887 -0.019446855 -0.000355814404
v 0.00521547263 -0.0173995912 0.00145029981
v 0.00440417243 -0.0194080814 0.000385315616
f 715 717 716
v 0.00325521723 -0.0194465945 0.00120044542
v 0.00450672887 -0.019446855 -0.000355814404
v 0.00440417243 -0.0194080814 0.000385315616
f 718 720 719
v 0.00356747114 -0.0186204576 0.00221633218
v 0.00473568907 -0.017735883 0.00253675153
v 0.00391902104 -0.0172491316 0.00344392829
f 721 723 722
v 0.00498810623 -0.0167916864 0.00276071914
v 0.00473568907 -0.017735883 0.00253675153
v 0.00521547263 -0.0173995912 0.00145029981
f 724 726 725
v 0.00521547263 -0.0173995912 0.00145029981
v 0.00546192205 -0.0155395843 0.000964204537
v 0.00525070536 -0.0157129994 0.00368506517
f 727 729 728
v 0.00521547263 -0.0173995912 0.00145029981
v 0.00525070536 -0.0157129994 0.00368506517
v 0.00498810623 -0.0167916864 0.00276071914
f 730 732 731
v 0.00521547263 -0.0173995912 0.00145029981
v 0.00531072656 -0.0165554986 -0.000577777018
v 0.00546192205 -0.0155395843 0.000964204537
f 733 735 734
v 0.00140393013 -0.0185686818 0.00151997365
v 0.00159547653 -0.0166585014 0.0030577281
v 0.000583313795 -0.0169361534 0.00206997265
f 736 738 737
v 0.00356747114 -0.0186204576 0.00221633218
v 0.00391902104 -0.0172491316 0.00344392829
v 0.00228364752 -0.0180344694 0.00261659698
f 739 741 740
v 0.00159547653 -0.0166585014 0.0030577281
v 0.00247970911 -0.014866468 0.00488643273
v 0.00112623084 -0.0148683888 0.0036485093
f 742 744 743
v 0.00103589191 -0.0107201529 0.00492420913
v 0.00112623084 -0.0148683888 0.0036485093
v 0.00282594847 -0.0111936715 0.00566227609
f 745 747 746
v 0.00247970911 -0.014866468 0.00488643273
v 0.00282594847 -0.0111936715 0.00566227609
v 0.00112623084 -0.0148683888 0.0036485093
f 748 750 749
v 0.00112623084 -0.0148683888 0.0036485093
v -0.000559113641 -0.0138449293 0.00250113644
v 0.00159547653 -0.0166585014 0.0030577281
f 751 753 752
v 0.000327126259 -0.0123016202 0.00392224865
v -0.000559113641 -0.0138449293 0.00250113644
v 0.00112623084 -0.0148683888 0.0036485093
f 754 756 755
v 0.0041029256 -0.0154472087 0.00508097401
v 0.00450316402 -0.0149883577 0.00525254181
v 0.00247970911 -0.014866468 0.00488643273
f 757 759 758
v 0.00247970911 -0.014866468 0.00488643273
v 0.00159547653 -0.0166585014 0.0030577281
v 0.0041029256 -0.0154472087 0.00508097401
f 760 762 761
v 0.00247970911 -0.014866468 0.00488643273
v 0.00450316402 -0.0149883577 0.00525254181
v 0.00350482405 -0.0130676766 0.00569325493
f 763 765 764
v 0.000327126259 -0.0123016202 0.00392224865
v 0.00112623084 -0.0148683888 0.0036485093
v 0.00103589191 -0.0107201529 0.00492420913
f 766 768 767
v 0.0041029256 -0.0154472087 0.00508097401
v 0.00525070536 -0.0157129994 0.00368506517
v 0.00450316402 -0.0149883577 0.00525254181
f 769 771 770
v 0.00450316402 -0.0149883577 0.00525254181
v 0.00569158292 -0.0134406713 0.00482587275
v 0.00487207981 -0.0130633518 0.00551877492
f 772 774 773
v 0.00450316402 -0.0149883577 0.00525254181
v 0.00525070536 -0.0157129994 0.00368506517
v 0.00541385343 -0.0148181542 0.00376117714
f 775 777 776
v 0.00569158292 -0.0134406713 0.00482587275
v 0.00563345493 -0.0124786893 0.00479899754
v 0.00487207981 -0.0130633518 0.00551877492
f 778 780 779
v 0.00450316402 -0.0149883577 0.00525254181
v 0.00541385343 -0.0148181542 0.00376117714
v 0.00569158292 -0.0134406713 0.00482587275
f 781 783 782
v 0.00541385343 -0.0148181542 0.00376117714
v 0.00567103707 -0.0133639463 0.00308839299
v 0.00569158292 -0.0134406713 0.00482587275
f 784 786 785
v 0.00567103707 -0.0133639463 0.00308839299
v 0.00563345493 -0.0124786893 0.00479899754
v 0.00569158292 -0.0134406713 0.00482587275
f 787 789 788
v 0.00563345493 -0.0124786893 0.00479899754
v 0.0065739805 -0.00843335074 0.00406921972
v 0.00581510976 -0.0108574051 0.00509287638
f 790 792 791
v 0.00611197247 -0.0117209252 0.00342501189
v 0.0061457773 -0.0112136033 0.00383432962
v 0.00563345493 -0.0124786893 0.00479899754
f 793 795 794
v 0.0061457773 -0.0112136033 0.00383432962
v 0.00611197247 -0.0117209252 0.00342501189
v 0.00610653005 -0.0117209252 0.00342501189
f 796 798 797
v 0.00563345493 -0.0124786893 0.00479899754
v 0.00610653005 -0.0117209252 0.00342501189
v 0.00611197247 -0.0117209252 0.00342501189
f 799 801 800
v 0.00604482339 -0.0124483253 0.00294501297
v 0.00610653005 -0.0117209252 0.00342501189
v 0.00563345493 -0.0124786893 0.00479899754
f 802 804 803
v 0.00604482339 -0.0124483253 0.00294501297
v 0.00611197247 -0.0117209252 0.00342501189
v 0.00610653005 -0.0117209252 0.00342501189
f 805 807 806
v 0.00604482339 -0.0124483253 0.00294501297
v 0.00563345493 -0.0124786893 0.00479899754
v 0.00567103707 -0.0133639463 0.00308839299
f 808 810 809
v 0.00591443968 -0.0121544021 0.0016344402
v 0.0061457773 -0.0112136033 0.00383432962
v 0.00610653005 -0.0117209252 0.00342501189
f 811 813 812
v 0.00611197247 -0.0117209252 0.00342501189
v 0.00591443968 -0.0121544021 0.0016344402
v 0.00610653005 -0.0117209252 0.00342501189
f 814 816 815
v 0.00591443968 -0.0121544021 0.0016344402
v 0.00611197247 -0.0117209252 0.00342501189
v 0.00604482339 -0.0124483253 0.00294501297
f 817 819 818
v 0.0061457773 -0.0112136033 0.00383432962
v 0.0065739805 -0.00843335074 0.00406921972
v 0.00563345493 -0.0124786893 0.00479899754
f 820 822 821
v 0.00609406634 -0.0108137341 0.001034653
v 0.00679449731 -0.00835806495 0.00258089076
v 0.0061457773 -0.0112136033 0.00383432962
f 823 825 824
v 0.00541385343 -0.0148181542 0.00376117714
v 0.00546192205 -0.0155395843 0.000964204537
v 0.00567103707 -0.0133639463 0.00308839299
f 826 828 827
v 0.00546192205 -0.0155395843 0.000964204537
v 0.00587167196 -0.0140216915 0.00170835647
v 0.00567103707 -0.0133639463 0.00308839299
f 829 831 830
v 0.00587167196 -0.0140216915 0.00170835647
v 0.00591443968 -0.0121544021 0.0016344402
v 0.00567103707 -0.0133639463 0.00308839299
f 832 834 833
v 0.00591443968 -0.0121544021 0.0016344402
v 0.00602623186 -0.0130169399 0.00229856832
v 0.00602164109 -0.0130780158 0.0023163233
f 835 837 836
v 0.00602623186 -0.0130169399 0.00229856832
v 0.00602708351 -0.0130780158 0.0023163233
v 0.00602164109 -0.0130780158 0.0023163233
f 838 840 839
v 0.00602708351 -0.0130780158 0.0023163233
v 0.00591443968 -0.0121544021 0.0016344402
v 0.00602164109 -0.0130780158 0.0023163233
f 841 843 842
v 0.00602708351 -0.0130780158 0.0023163233
v 0.00602623186 -0.0130169399 0.00229856832
v 0.00604482339 -0.0124483253 0.00294501297
f 844 846 845
v 0.00591443968 -0.0121544021 0.0016344402
v 0.00602708351 -0.0130780158 0.0023163233
v 0.00567103707 -0.0133639463 0.00308839299
f 847 849 848
v 0.00567103707 -0.0133639463 0.00308839299
v 0.00602164109 -0.0130780158 0.0023163233
v 0.00604482339 -0.0124483253 0.00294501297
f 850 852 851
v 0.00567103707 -0.0133639463 0.00308839299
v 0.00602708351 -0.0130780158 0.0023163233
v 0.00602164109 -0.0130780158 0.0023163233
f 853 855 854
v 0.00604482339 -0.0124483253 0.00294501297
v 0.00602164109 -0.0130780158 0.0023163233
v 0.00602708351 -0.0130780158 0.0023163233
f 856 858 857
v 0.00546192205 -0.0155395843 0.000964204537
v 0.00526995027 -0.0136401562 -0.000811027439
v 0.00587167196 -0.0140216915 0.00170835647
f 859 861 860
v 0.00591443968 -0.0121544021 0.0016344402
v 0.00587167196 -0.0140216915 0.00170835647
v 0.00526995027 -0.0136401562 -0.000811027439
f 862 864 863
v 0.00591443968 -0.0121544021 0.0016344402
v 0.00609406634 -0.0108137341 0.001034653
v 0.0061457773 -0.0112136033 0.00383432962
f 865 867 866
v 0.00526995027 -0.0136401562 -0.000811027439
v 0.00493356201 -0.0117915202 -0.00264092778
v 0.00591443968 -0.0121544021 0.0016344402
f 868 870 869
v 0.00591443968 -0.0121544021 0.0016344402
v 0.00493356201 -0.0117915202 -0.00264092778
v 0.00609406634 -0.0108137341 0.001034653
f 871 873 872
v 0.00609406634 -0.0108137341 0.001034653
v 0.00660359365 -0.0089584908 0.00126067189
v 0.00679449731 -0.00835806495 0.00258089076
f 874 876 875
v 0.00599399937 -0.0101070815 0.000203808736
v 0.00609406634 -0.0108137341 0.001034653
v 0.00493356201 -0.0117915202 -0.00264092778
f 877 879 878
v 0.00602623186 -0.0130169399 0.00229856832
v 0.00591443968 -0.0121544021 0.0016344402
v 0.00604482339 -0.0124483253 0.00294501297
f 880 882 881
v 0.00282594847 -0.0111936715 0.00566227609
v 0.00215737655 -0.0103732331 0.00583983347
v 0.00103589191 -0.0107201529 0.00492420913
f 883 885 884
v 0.00424164573 -0.00901913518 0.00603849112
v 0.00362582177 -0.00793653744 0.00544009563
v 0.00144468877 -0.00906795831 0.00538257409
f 886 888 887
v 0.00215737655 -0.0103732331 0.00583983347
v 0.00309306015 -0.00978623211 0.00592961223
v 0.00144468877 -0.00906795831 0.00538257409
f 889 891 890
v 0.00424164573 -0.00901913518 0.00603849112
v 0.00144468877 -0.00906795831 0.00538257409
v 0.00309306015 -0.00978623211 0.00592961223
f 892 894 893
v 0.000934698528 -0.00720183816 0.00556404229
v 0.00362582177 -0.00793653744 0.00544009563
v 0.00359478909 -0.00712823676 0.0057629175
f 895 897 896
v 0.000934698528 -0.00720183816 0.00556404229
v 0.00359478909 -0.00712823676 0.0057629175
v 0.000318804041 -0.00550745863 0.00567519637
f 898 900 899
v 0.000318804041 -0.00550745863 0.00567519637
v 0.00359478909 -0.00712823676 0.0057629175
v 0.0010810174 -0.00446687409 0.00558205465
f 901 903 902
v 0.00243442046 -0.0042647971 0.00570202901
v 0.00415220093 -0.00530346588 0.00607228903
v 0.0034574743 -0.00328570895 0.00492779582
f 904 906 905
v 0.00481071038 -0.0105433464 0.00606144604
v 0.00424164573 -0.00901913518 0.00603849112
v 0.00309306015 -0.00978623211 0.00592961223
f 907 909 908
v 0.00424164573 -0.00901913518 0.00603849112
v 0.00481071038 -0.0105433464 0.00606144604
v 0.00572662393 -0.00859457432 0.00576996244
f 910 912 911
v 0.00362582177 -0.00793653744 0.00544009563
v 0.00536159314 -0.00749208193 0.00539196699
v 0.00359478909 -0.00712823676 0.0057629175
f 913 915 914
v 0.00424164573 -0.00901913518 0.00603849112
v 0.00572662393 -0.00859457432 0.00576996244
v 0.00362582177 -0.00793653744 0.00544009563
f 916 918 917
v 0.00581510976 -0.0108574051 0.00509287638
v 0.00572662393 -0.00859457432 0.00576996244
v 0.00481071038 -0.0105433464 0.00606144604
f 919 921 920
v 0.00581510976 -0.0108574051 0.00509287638
v 0.0065739805 -0.00843335074 0.00406921972
v 0.00572662393 -0.00859457432 0.00576996244
f 922 924 923
v 0.00359478909 -0.00712823676 0.0057629175
v 0.00536159314 -0.00749208193 0.00539196699
v 0.00411986948 -0.00583964793 0.0059164955
f 925 927 926
v 0.00411986948 -0.00583964793 0.0059164955
v 0.00536159314 -0.00749208193 0.00539196699
v 0.00573951729 -0.00548602402 0.00510076497
f 928 930 929
v 0.00359478909 -0.00712823676 0.0057629175
v 0.00411986948 -0.00583964793 0.0059164955
v 0.00415220093 -0.00530346588 0.00607228903
f 931 933 932
v 0.00415220093 -0.00530346588 0.00607228903
v 0.00492667714 -0.00456466223 0.00532182203
v 0.0034574743 -0.00328570895 0.00492779582
f 934 936 935
v 0.00411986948 -0.00583964793 0.0059164955
v 0.00492667714 -0.00456466223 0.00532182203
v 0.00415220093 -0.00530346588 0.00607228903
f 937 939 938
v 0.00359478909 -0.00712823676 0.0057629175
v 0.00415220093 -0.00530346588 0.00607228903
v 0.00243442046 -0.0042647971 0.00570202901
f 940 942 941
v 0.00215737655 -0.0103732331 0.00583983347
v 0.00144468877 -0.00906795831 0.00538257409
v 0.00103589191 -0.0107201529 0.00492420913
f 943 945 944
v 0.00144468877 -0.00906795831 0.00538257409
v 0.00362582177 -0.00793653744 0.00544009563
v -1.68903199e-05 -0.0080523052 0.0050956889
f 946 948 947
v 0.00103589191 -0.0107201529 0.00492420913
v 0.00144468877 -0.00906795831 0.00538257409
v -1.68903199e-05 -0.0080523052 0.0050956889
f 949 951 950
v -1.68903199e-05 -0.0080523052 0.0050956889
v 0.00362582177 -0.00793653744 0.00544009563
v 2.4152439e-05 -0.00738356321 0.00509759957
f 952 954 953
v 2.4152439e-05 -0.00738356321 0.00509759957
v 0.00362582177 -0.00793653744 0.00544009563
v 0.000934698528 -0.00720183816 0.00556404229
f 955 957 956
v 0.0065739805 -0.00843335074 0.00406921972
v 0.00536159314 -0.00749208193 0.00539196699
v 0.00572662393 -0.00859457432 0.00576996244
f 958 960 959
v 0.00628222479 -0.00651493028 0.00455353256
v 0.00573951729 -0.00548602402 0.00510076497
v 0.00536159314 -0.00749208193 0.00539196699
f 961 963 962
v 0.0065739805 -0.00843335074 0.00406921972
v 0.00628222479 -0.00651493028 0.00455353256
v 0.00536159314 -0.00749208193 0.00539196699
f 964 966 965
v 0.00411986948 -0.00583964793 0.0059164955
v 0.00573951729 -0.00548602402 0.00510076497
v 0.00492667714 -0.00456466223 0.00532182203
f 967 969 968
v 0.00573951729 -0.00548602402 0.00510076497
v 0.0061645711 -0.00426012266 0.00322973247
v 0.00492667714 -0.00456466223 0.00532182203
f 970 972 971
v 0.00628222479 -0.00651493028 0.00455353256
v 0.0061645711 -0.00426012266 0.00322973247
v 0.00573951729 -0.00548602402 0.00510076497
f 973 975 974
v 0.00149052521 -0.00277794006 0.00454385918
v 0.000318804041 -0.00550745863 0.00567519637
v 0.0010810174 -0.00446687409 0.00558205465
f 976 978 977
v 0.0010810174 -0.00446687409 0.00558205465
v 0.00243442046 -0.0042647971 0.00570202901
v 0.00149052521 -0.00277794006 0.00454385918
f 979 981 980
v -0.000586210672 -0.00442903511 0.00456129346
v 0.00149052521 -0.00277794006 0.00454385918
v -0.000387320961 -0.00234994313 0.00404097518
f 982 984 983
v 0.00149052521 -0.00277794006 0.00454385918
v 0.00196650817 -0.00210013677 0.00424372738
v 0.000247038975 -0.00192914376 0.00427558116
f 985 987 986
v 0.00226891043 -0.00263600868 0.00416079711
v 0.00196650817 -0.00210013677 0.00424372738
v 0.00149052521 -0.00277794006 0.00454385918
f 988 990 989
v 0.0034574743 -0.00328570895 0.00492779582
v 0.00149052521 -0.00277794006 0.00454385918
v 0.00243442046 -0.0042647971 0.00570202901
f 991 993 992
v 0.0034574743 -0.00328570895 0.00492779582
v 0.00361334642 -0.00278193329 0.00410381217
v 0.00149052521 -0.00277794006 0.00454385918
f 994 996 995
v 0.00149052521 -0.00277794006 0.00454385918
v 0.00361334642 -0.00278193329 0.00410381217
v 0.00226891043 -0.00263600868 0.00416079711
f 997 999 998
v 0.00226891043 -0.00263600868 0.00416079711
v 0.00351259368 -0.00242028145 0.00408786727
v 0.00196650817 -0.00210013677 0.00424372738
f 1000 1002 1001
v 0.0034574743 -0.00328570895 0.00492779582
v 0.00492667714 -0.00456466223 0.00532182203
v 0.00361334642 -0.00278193329 0.00410381217
f 1003 1005 1004
v 0.00361334642 -0.00278193329 0.00410381217
v 0.00351259368 -0.00242028145 0.00408786727
v 0.00226891043 -0.00263600868 0.00416079711
f 1006 1008 1007
v 0.00396012219 -0.0021180469 0.0019817624
v 0.000247038975 -0.00192914376 0.00427558116
v 0.00196650817 -0.00210013677 0.00424372738
f 1009 1011 1010
v 0.00351259368 -0.00242028145 0.00408786727
v 0.00396012219 -0.0021180469 0.0019817624
v 0.00196650817 -0.00210013677 0.00424372738
f 1012 1014 1013
v 0.00394477393 -0.00175231962 -0.000160203876
v 0.000247038975 -0.00192914376 0.00427558116
v 0.00396012219 -0.0021180469 0.0019817624
f 1015 1017 1016
v 0.00446212907 -0.00220782622 0.00361750499
v 0.00396012219 -0.0021180469 0.0019817624
v 0.00351259368 -0.00242028145 0.00408786727
f 1018 1020 1019
v 0.00361334642 -0.00278193329 0.00410381217
v 0.00446212907 -0.00220782622 0.00361750499
v 0.00351259368 -0.00242028145 0.00408786727
f 1021 1023 1022
v 0.00502514376 -0.00303307788 0.00322357082
v 0.00361334642 -0.00278193329 0.00410381217
v 0.00492667714 -0.00456466223 0.00532182203
f 1024 1026 1025
v 0.00485994569 -0.00228326553 0.00148931613
v 0.00446212907 -0.00220782622 0.00361750499
v 0.00502514376 -0.00303307788 0.00322357082
f 1027 1029 1028
v 0.00502514376 -0.00303307788 0.00322357082
v 0.00446212907 -0.00220782622 0.00361750499
v 0.00361334642 -0.00278193329 0.00410381217
f 1030 1032 1031
v 0.0061645711 -0.00426012266 0.00322973247
v 0.00587069771 -0.0025614434 0.000193288884
v 0.00502514376 -0.00303307788 0.00322357082
f 1033 1035 1034
v 0.00587069771 -0.0025614434 0.000193288884
v 0.00485994569 -0.00228326553 0.00148931613
v 0.00502514376 -0.00303307788 0.00322357082
f 1036 1038 1037
v 0.00492667714 -0.00456466223 0.00532182203
v 0.0061645711 -0.00426012266 0.00322973247
v 0.00502514376 -0.00303307788 0.00322357082
f 1039 1041 1040
v 0.00485994569 -0.00228326553 0.00148931613
v 0.00478979237 -0.00208947549 0.00224354008
v 0.00479380178 -0.00208763031 0.00232326256
f 1042 1044 1043
v 0.00479380178 -0.00208763031 0.00232326256
v 0.00478979237 -0.00208947549 0.00224354008
v 0.00396012219 -0.0021180469 0.0019817624
f 1045 1047 1046
v 0.00485994569 -0.00228326553 0.00148931613
v 0.00478686889 -0.0020991205 0.00207951816
v 0.00478501352 -0.00209206573 0.00215838445
f 1048 1050 1049
v 0.00478501352 -0.00209206573 0.00215838445
v 0.00478686889 -0.0020991205 0.00207951816
v 0.00396012219 -0.0021180469 0.0019817624
f 1051 1053 1052
v 0.00479380178 -0.00208763031 0.00232326256
v 0.00478979237 -0.00208947549 0.00224354008
v 0.00487927937 -0.00206815857 0.00196144629
f 1054 1056 1055
v 0.00478501352 -0.00209206573 0.00215838445
v 0.00478686889 -0.0020991205 0.00207951816
v 0.00487927937 -0.00206815857 0.00196144629
f 1057 1059 1058
v 0.00485994569 -0.00228326553 0.00148931613
v 0.00478501352 -0.00209206573 0.00215838445
v 0.00478979237 -0.00208947549 0.00224354008
f 1060 1062 1061
v 0.00478979237 -0.00208947549 0.00224354008
v 0.00478501352 -0.00209206573 0.00215838445
v 0.00396012219 -0.0021180469 0.0019817624
f 1063 1065 1064
v 0.00479380178 -0.00208763031 0.00232326256
v 0.00487927937 -0.00206815857 0.00196144629
v 0.00479014307 -0.00205315264 0.00199621209
f 1066 1068 1067
v 0.00479380178 -0.00208763031 0.00232326256
v 0.00479014307 -0.00205315264 0.00199621209
v 0.00478979237 -0.00208947549 0.00224354008
f 1069 1071 1070
v 0.00478501352 -0.00209206573 0.00215838445
v 0.00479014307 -0.00205315264 0.00199621209
v 0.00478686889 -0.0020991205 0.00207951816
f 1072 1074 1073
v 0.00396012219 -0.0021180469 0.0019817624
v 0.00478686889 -0.0020991205 0.00207951816
v 0.00479014307 -0.00205315264 0.00199621209
f 1075 1077 1076
v 0.00478979237 -0.00208947549 0.00224354008
v 0.00479014307 -0.00205315264 0.00199621209
v 0.00478501352 -0.00209206573 0.00215838445
f 1078 1080 1079
v 0.00478979237 -0.00208947549 0.00224354008
v 0.00478501352 -0.00209206573 0.00215838445
v 0.00487927937 -0.00206815857 0.00196144629
f 1081 1083 1082
v 0.00485994569 -0.00228326553 0.00148931613
v 0.00479380178 -0.00208763031 0.00232326256
v 0.00446212907 -0.00220782622 0.00361750499
f 1084 1086 1085
v 0.00446212907 -0.00220782622 0.00361750499
v 0.00479380178 -0.00208763031 0.00232326256
v 0.00396012219 -0.0021180469 0.0019817624
f 1087 1089 1088
v 0.00485994569 -0.00228326553 0.00148931613
v 0.00480439521 -0.00211335955 0.00190764913
v 0.00479593327 -0.00210722446 0.0019819141
f 1090 1092 1091
v 0.00479593327 -0.00210722446 0.0019819141
v 0.00480439521 -0.00211335955 0.00190764913
v 0.00396012219 -0.0021180469 0.0019817624
f 1093 1095 1094
v 0.00479593327 -0.00210722446 0.0019819141
v 0.00480439521 -0.00211335955 0.00190764913
v 0.00487927937 -0.00206815857 0.00196144629
f 1096 1098 1097
v 0.00480439521 -0.00211335955 0.00190764913
v 0.00485994569 -0.00228326553 0.00148931613
v 0.00396012219 -0.0021180469 0.0019817624
f 1099 1101 1100
v 0.00479593327 -0.00210722446 0.0019819141
v 0.00479014307 -0.00205315264 0.00199621209
v 0.00480439521 -0.00211335955 0.00190764913
f 1102 1104 1103
v 0.00396012219 -0.0021180469 0.0019817624
v 0.00479014307 -0.00205315264 0.00199621209
v 0.00479593327 -0.00210722446 0.0019819141
f 1105 1107 1106
v 0.00479014307 -0.00205315264 0.00199621209
v 0.00487927937 -0.00206815857 0.00196144629
v 0.00480439521 -0.00211335955 0.00190764913
f 1108 1110 1109
v 0.00485994569 -0.00228326553 0.00148931613
v 0.00479593327 -0.00210722446 0.0019819141
v 0.00478686889 -0.0020991205 0.00207951816
f 1111 1113 1112
v 0.00478686889 -0.0020991205 0.00207951816
v 0.00479593327 -0.00210722446 0.0019819141
v 0.00487927937 -0.00206815857 0.00196144629
f 1114 1116 1115
v 0.00485994569 -0.00228326553 0.00148931613
v 0.00394477393 -0.00175231962 -0.000160203876
v 0.00396012219 -0.0021180469 0.0019817624
f 1117 1119 1118
v 0.00562667665 -0.00214659158 0.000106717346
v 0.00394477393 -0.00175231962 -0.000160203876
v 0.00485994569 -0.00228326553 0.00148931613
f 1120 1122 1121
v 0.00609668568 -0.00500696915 -0.000153016117
v 0.00587069771 -0.0025614434 0.000193288884
v 0.0061645711 -0.00426012266 0.00322973247
f 1123 1125 1124
v 0.00587069771 -0.0025614434 0.000193288884
v 0.00562667665 -0.00214659158 0.000106717346
v 0.00485994569 -0.00228326553 0.00148931613
f 1126 1128 1127
v 0.00394477393 -0.00175231962 -0.000160203876
v 0.00109175362 -0.00129994942 -0.000262827621
v 0.000247038975 -0.00192914376 0.00427558116
f 1129 1131 1130
v 0.0065739805 -0.00843335074 0.00406921972
v 0.00671605303 -0.00697363575 0.00166235332
v 0.00628222479 -0.00651493028 0.00455353256
f 1132 1134 1133
v 0.00671605303 -0.00697363575 0.00166235332
v 0.00668595821 -0.00607035363 0.00261762998
v 0.00628222479 -0.00651493028 0.00455353256
f 1135 1137 1136
v 0.00628222479 -0.00651493028 0.00455353256
v 0.00668595821 -0.00607035363 0.00261762998
v 0.0061645711 -0.00426012266 0.00322973247
f 1138 1140 1139
v 0.00668595821 -0.00607035363 0.00261762998
v 0.00609668568 -0.00500696915 -0.000153016117
v 0.0061645711 -0.00426012266 0.00322973247
f 1141 1143 1142
v 0.00599399937 -0.0101070815 0.000203808736
v 0.00611825308 -0.00972284615 -0.000986180385
v 0.00671737216 -0.00910941089 0.000388444369
f 1144 1146 1145
v 0.00599399937 -0.0101070815 0.000203808736
v 0.00671737216 -0.00910941089 0.000388444369
v 0.00660359365 -0.0089584908 0.00126067189
f 1147 1149 1148
v 0.00671737216 -0.00910941089 0.000388444369
v 0.00653498428 -0.00857790801 0.000547396257
v 0.00660359365 -0.0089584908 0.00126067189
f 1150 1152 1151
v 0.00671737216 -0.00910941089 0.000388444369
v 0.00653758907 -0.00857790801 0.000547396257
v 0.00653498428 -0.00857790801 0.000547396257
f 1153 1155 1154
v 0.00660359365 -0.0089584908 0.00126067189
v 0.00653498428 -0.00857790801 0.000547396257
v 0.00653758907 -0.00857790801 0.000547396257
f 1156 1158 1157
v 0.00653758907 -0.00857790801 0.000547396257
v 0.00671605303 -0.00697363575 0.00166235332
v 0.00660359365 -0.0089584908 0.00126067189
f 1159 1161 1160
v 0.00642655868 -0.00813180595 -0.000576395405
v 0.00671605303 -0.00697363575 0.00166235332
v 0.00653498428 -0.00857790801 0.000547396257
f 1162 1164 1163
v 0.00671605303 -0.00697363575 0.00166235332
v 0.00653758907 -0.00857790801 0.000547396257
v 0.00653498428 -0.00857790801 0.000547396257
f 1165 1167 1166
v 0.00653758907 -0.00857790801 0.000547396257
v 0.00671737216 -0.00910941089 0.000388444369
v 0.00642655868 -0.00813180595 -0.000576395405
f 1168 1170 1169
v 0.00653758907 -0.00857790801 0.000547396257
v 0.00642655868 -0.00813180595 -0.000576395405
v 0.00653498428 -0.00857790801 0.000547396257
f 1171 1173 1172
v 0.00660359365 -0.0089584908 0.00126067189
v 0.00671605303 -0.00697363575 0.00166235332
v 0.00679449731 -0.00835806495 0.00258089076
f 1174 1176 1175
v 0.00609668568 -0.00500696915 -0.000153016117
v 0.00668595821 -0.00607035363 0.00261762998
v 0.00671605303 -0.00697363575 0.00166235332
f 1177 1179 1178
v 0.00663012033 -0.00649052163 -0.000222660356
v 0.00609668568 -0.00500696915 -0.000153016117
v 0.00671605303 -0.00697363575 0.00166235332
f 1180 1182 1181
v 0.00679449731 -0.00835806495 0.00258089076
v 0.00671605303 -0.00697363575 0.00166235332
v 0.0065739805 -0.00843335074 0.00406921972
f 1183 1185 1184
v 0.00642655868 -0.00813180595 -0.000576395405
v 0.00663012033 -0.00649052163 -0.000222660356
v 0.00671605303 -0.00697363575 0.00166235332
f 1186 1188 1187
v 0.0061457773 -0.0112136033 0.00383432962
v 0.00679449731 -0.00835806495 0.00258089076
v 0.0065739805 -0.00843335074 0.00406921972
f 1189 1191 1190
v 0.00599399937 -0.0101070815 0.000203808736
v 0.00660359365 -0.0089584908 0.00126067189
v 0.00609406634 -0.0108137341 0.001034653
f 1192 1194 1193
v 0.00572662393 -0.00859457432 0.00576996244
v 0.00536159314 -0.00749208193 0.00539196699
v 0.00362582177 -0.00793653744 0.00544009563
f 1195 1197 1196
v 0.0010810174 -0.00446687409 0.00558205465
v 0.00359478909 -0.00712823676 0.0057629175
v 0.00243442046 -0.0042647971 0.00570202901
f 1198 1200 1199
v 0.00162338802 -0.0198089663 -0.0012806905
v 0.000783886117 -0.0183256401 -0.00322671403
v 0.00311238073 -0.0192021456 -0.00275054153
f 1201 1203 1202
v 0.00311238073 -0.0192021456 -0.00275054153
v 0.00450672887 -0.019446855 -0.000355814404
v 0.00229259131 -0.0198675873 -0.00159088868
f 1204 1206 1205
v 0.00162338802 -0.0198089663 -0.0012806905
v 0.00311238073 -0.0192021456 -0.00275054153
v 0.00229259131 -0.0198675873 -0.00159088868
f 1207 1209 1208
v 0.00149864927 -0.0150320979 -0.00543918359
v 0.0034599736 -0.0158936105 -0.00474908447
v 0.00282787842 -0.016917137 -0.00457834976
f 1210 1212 1211
v 0.00282787842 -0.016917137 -0.00457834976
v 0.00311238073 -0.0192021456 -0.00275054153
v 0.000368283759 -0.0161725984 -0.00497976034
f 1213 1215 1214
v 0.00282787842 -0.016917137 -0.00457834976
v 0.00408872256 -0.0177563445 -0.00330585899
v 0.00311238073 -0.0192021456 -0.00275054153
f 1216 1218 1217
v 0.0034599736 -0.0158936105 -0.00474908447
v 0.00326080881 -0.014205568 -0.00518691122
v 0.00438219759 -0.0157726434 -0.00378033692
f 1219 1221 1220
v 0.00326080881 -0.014205568 -0.00518691122
v 0.0034599736 -0.0158936105 -0.00474908447
v 0.00149864927 -0.0150320979 -0.00543918359
f 1222 1224 1223
v 0.00229259131 -0.0198675873 -0.00159088868
v 0.00450672887 -0.019446855 -0.000355814404
v 0.00325521723 -0.0194465945 0.00120044542
f 1225 1227 1226
v 0.00450672887 -0.019446855 -0.000355814404
v 0.00311238073 -0.0192021456 -0.00275054153
v 0.00472491483 -0.0184116579 -0.00123360824
f 1228 1230 1229
v 0.00531072656 -0.0165554986 -0.000577777018
v 0.00521547263 -0.0173995912 0.00145029981
v 0.00450672887 -0.019446855 -0.000355814404
f 1231 1233 1232
v 0.00450672887 -0.019446855 -0.000355814404
v 0.00472491483 -0.0184116579 -0.00123360824
v 0.00531072656 -0.0165554986 -0.000577777018
f 1234 1236 1235
v 0.00408872256 -0.0177563445 -0.00330585899
v 0.00505841999 -0.0151526387 -0.00203488453
v 0.00472491483 -0.0184116579 -0.00123360824
f 1237 1239 1238
v 0.0051210649 -0.0153310073 -0.00121142139
v 0.00531072656 -0.0165554986 -0.000577777018
v 0.00472491483 -0.0184116579 -0.00123360824
f 1240 1242 1241
v 0.00408872256 -0.0177563445 -0.00330585899
v 0.00438219759 -0.0157726434 -0.00378033692
v 0.00505841999 -0.0151526387 -0.00203488453
f 1243 1245 1244
v 0.00282787842 -0.016917137 -0.00457834976
v 0.0034599736 -0.0158936105 -0.00474908447
v 0.00408872256 -0.0177563445 -0.00330585899
f 1246 1248 1247
v 0.0034599736 -0.0158936105 -0.00474908447
v 0.00438219759 -0.0157726434 -0.00378033692
v 0.00408872256 -0.0177563445 -0.00330585899
f 1249 1251 1250
v 0.00438219759 -0.0157726434 -0.00378033692
v 0.00448114624 -0.0141096214 -0.00369089539
v 0.00505841999 -0.0151526387 -0.00203488453
f 1252 1254 1253
v 0.00408872256 -0.0177563445 -0.00330585899
v 0.00472491483 -0.0184116579 -0.00123360824
v 0.00311238073 -0.0192021456 -0.00275054153
f 1255 1257 1256
v 0.00173570643 -0.0131292923 -0.00573650068
v 0.00240776444 -0.0121451129 -0.00565116752
v 0.00326080881 -0.014205568 -0.00518691122
f 1258 1260 1259
v 0.00326080881 -0.014205568 -0.00518691122
v 0.00338890022 -0.0120378791 -0.00489641316
v 0.00422988596 -0.012843126 -0.00371943679
f 1261 1263 1262
v 0.00240776444 -0.0121451129 -0.00565116752
v 0.00338890022 -0.0120378791 -0.00489641316
v 0.00326080881 -0.014205568 -0.00518691122
f 1264 1266 1265
v 0.00458905342 -0.0139337324 -0.0024632327
v 0.00505841999 -0.0151526387 -0.00203488453
v 0.00448114624 -0.0141096214 -0.00369089539
f 1267 1269 1268
v 0.00458905342 -0.0139337324 -0.0024632327
v 0.00493356201 -0.0117915202 -0.00264092778
v 0.00526995027 -0.0136401562 -0.000811027439
f 1270 1272 1271
v 0.0051210649 -0.0153310073 -0.00121142139
v 0.00546192205 -0.0155395843 0.000964204537
v 0.00531072656 -0.0165554986 -0.000577777018
f 1273 1275 1274
v 0.00505841999 -0.0151526387 -0.00203488453
v 0.00458905342 -0.0139337324 -0.0024632327
v 0.00526110889 -0.0138647112 -0.000906413152
f 1276 1278 1277
v 0.00505841999 -0.0151526387 -0.00203488453
v 0.00526110889 -0.0138647112 -0.000906413152
v 0.00525561991 -0.0138647112 -0.000906413152
f 1279 1281 1280
v 0.00526110889 -0.0138647112 -0.000906413152
v 0.00458905342 -0.0139337324 -0.0024632327
v 0.00525561991 -0.0138647112 -0.000906413152
f 1282 1284 1283
v 0.00505841999 -0.0151526387 -0.00203488453
v 0.00525561991 -0.0138647112 -0.000906413152
v 0.00546192205 -0.0155395843 0.000964204537
f 1285 1287 1286
v 0.00546192205 -0.0155395843 0.000964204537
v 0.00525561991 -0.0138647112 -0.000906413152
v 0.00526110889 -0.0138647112 -0.000906413152
f 1288 1290 1289
v 0.00458905342 -0.0139337324 -0.0024632327
v 0.00526995027 -0.0136401562 -0.000811027439
v 0.00525561991 -0.0138647112 -0.000906413152
f 1291 1293 1292
v 0.00526995027 -0.0136401562 -0.000811027439
v 0.00526110889 -0.0138647112 -0.000906413152
v 0.00525561991 -0.0138647112 -0.000906413152
f 1294 1296 1295
v 0.00526110889 -0.0138647112 -0.000906413152
v 0.00526995027 -0.0136401562 -0.000811027439
v 0.00546192205 -0.0155395843 0.000964204537
f 1297 1299 1298
v 0.00505841999 -0.0151526387 -0.00203488453
v 0.0051210649 -0.0153310073 -0.00121142139
v 0.00472491483 -0.0184116579 -0.00123360824
f 1300 1302 1301
v 0.0051210649 -0.0153310073 -0.00121142139
v 0.00505841999 -0.0151526387 -0.00203488453
v 0.00546192205 -0.0155395843 0.000964204537
f 1303 1305 1304
v 0.00493356201 -0.0117915202 -0.00264092778
v 0.00611825308 -0.00972284615 -0.000986180385
v 0.00599399937 -0.0101070815 0.000203808736
f 1306 1308 1307
v 0.00326080881 -0.014205568 -0.00518691122
v 0.00448114624 -0.0141096214 -0.00369089539
v 0.00438219759 -0.0157726434 -0.00378033692
f 1309 1311 1310
v 0.00422988596 -0.012843126 -0.00371943679
v 0.00448114624 -0.0141096214 -0.00369089539
v 0.00326080881 -0.014205568 -0.00518691122
f 1312 1314 1313
v 0.00448114624 -0.0141096214 -0.00369089539
v 0.00422988596 -0.012843126 -0.00371943679
v 0.00458905342 -0.0139337324 -0.0024632327
f 1315 1317 1316
v 0.00458905342 -0.0139337324 -0.0024632327
v 0.00422988596 -0.012843126 -0.00371943679
v 0.00421251243 -0.0110818371 -0.00456132111
f 1318 1320 1319
v 0.00338890022 -0.0120378791 -0.00489641316
v 0.00421251243 -0.0110818371 -0.00456132111
v 0.00422988596 -0.012843126 -0.00371943679
f 1321 1323 1322
v 0.00493356201 -0.0117915202 -0.00264092778
v 0.00421251243 -0.0110818371 -0.00456132111
v 0.00516857799 -0.00993900976 -0.00277782947
f 1324 1326 1325
v 0.00421251243 -0.0110818371 -0.00456132111
v 0.00491816936 -0.0101848869 -0.00416718394
v 0.00516857799 -0.00993900976 -0.00277782947
f 1327 1329 1328
v 0.00338890022 -0.0120378791 -0.00489641316
v 0.00319937135 -0.00993226204 -0.00559917789
v 0.00421251243 -0.0110818371 -0.00456132111
f 1330 1332 1331
v 0.00319937135 -0.00993226204 -0.00559917789
v 0.00394351118 -0.00926353605 -0.00555826264
v 0.00421251243 -0.0110818371 -0.00456132111
f 1333 1335 1334
v 0.00421251243 -0.0110818371 -0.00456132111
v 0.00394351118 -0.00926353605 -0.00555826264
v 0.00491816936 -0.0101848869 -0.00416718394
f 1336 1338 1337
v 0.00458905342 -0.0139337324 -0.0024632327
v 0.00421251243 -0.0110818371 -0.00456132111
v 0.00493356201 -0.0117915202 -0.00264092778
f 1339 1341 1340
v 0.00326080881 -0.014205568 -0.00518691122
v 0.00149864927 -0.0150320979 -0.00543918359
v 0.00173570643 -0.0131292923 -0.00573650068
f 1342 1344 1343
v 0.000142038618 -0.0129458582 -0.00552253077
v 0.00173570643 -0.0131292923 -0.00573650068
v 0.00149864927 -0.0150320979 -0.00543918359
f 1345 1347 1346
v 0.00150148253 -0.0105254927 -0.00613567972
v 0.00240776444 -0.0121451129 -0.00565116752
v 0.000138147698 -0.0118827906 -0.00588744442
f 1348 1350 1349
v 0.000138147698 -0.0118827906 -0.00588744442
v 0.00240776444 -0.0121451129 -0.00565116752
v 0.00173570643 -0.0131292923 -0.00573650068
f 1351 1353 1352
v 0.00240776444 -0.0121451129 -0.00565116752
v 0.00319937135 -0.00993226204 -0.00559917789
v 0.00338890022 -0.0120378791 -0.00489641316
f 1354 1356 1355
v 0.00150148253 -0.0105254927 -0.00613567972
v 0.00319937135 -0.00993226204 -0.00559917789
v 0.00240776444 -0.0121451129 -0.00565116752
f 1357 1359 1358
v 0.00172076525 -0.00374568226 -0.00524863426
v 0.00333628268 -0.00753781133 -0.00547136442
v 0.00145147833 -0.00721444085 -0.0060175531
f 1360 1362 1361
v 0.00316327969 -0.00392236907 -0.00470322775
v 0.00333628268 -0.00753781133 -0.00547136442
v 0.00172076525 -0.00374568226 -0.00524863426
f 1363 1365 1364
v 0.00561576126 -0.00820742425 -0.0025876252
v 0.00601391293 -0.00623231535 -0.00201992534
v 0.00642655868 -0.00813180595 -0.000576395405
f 1366 1368 1367
v 0.00493356201 -0.0117915202 -0.00264092778
v 0.00516857799 -0.00993900976 -0.00277782947
v 0.00611825308 -0.00972284615 -0.000986180385
f 1369 1371 1370
v 0.00642655868 -0.00813180595 -0.000576395405
v 0.00611825308 -0.00972284615 -0.000986180385
v 0.00516857799 -0.00993900976 -0.00277782947
f 1372 1374 1373
v 0.00516857799 -0.00993900976 -0.00277782947
v 0.00561576126 -0.00820742425 -0.0025876252
v 0.00642655868 -0.00813180595 -0.000576395405
f 1375 1377 1376
v 0.00663012033 -0.00649052163 -0.000222660356
v 0.00601391293 -0.00623231535 -0.00201992534
v 0.00609668568 -0.00500696915 -0.000153016117
f 1378 1380 1379
v 0.00570802476 -0.00416845178 -0.00147237206
v 0.00609668568 -0.00500696915 -0.000153016117
v 0.00601391293 -0.00623231535 -0.00201992534
f 1381 1383 1382
v 0.00394351118 -0.00926353605 -0.00555826264
v 0.00561576126 -0.00820742425 -0.0025876252
v 0.00491816936 -0.0101848869 -0.00416718394
f 1384 1386 1385
v 0.0043808428 -0.00837948901 -0.00500981841
v 0.00561576126 -0.00820742425 -0.0025876252
v 0.00394351118 -0.00926353605 -0.00555826264
f 1387 1389 1388
v 0.00418742493 -0.00703966434 -0.00479146365
v 0.00561576126 -0.00820742425 -0.0025876252
v 0.0043808428 -0.00837948901 -0.00500981841
f 1390 1392 1391
v 0.00418742493 -0.00703966434 -0.00479146365
v 0.00316327969 -0.00392236907 -0.00470322775
v 0.00464578334 -0.00545333787 -0.00401217512
f 1393 1395 1394
v 0.00418742493 -0.00703966434 -0.00479146365
v 0.00464578334 -0.00545333787 -0.00401217512
v 0.00601391293 -0.00623231535 -0.00201992534
f 1396 1398 1397
v 0.00418742493 -0.00703966434 -0.00479146365
v 0.00333628268 -0.00753781133 -0.00547136442
v 0.00316327969 -0.00392236907 -0.00470322775
f 1399 1401 1400
v 0.00491816936 -0.0101848869 -0.00416718394
v 0.00561576126 -0.00820742425 -0.0025876252
v 0.00516857799 -0.00993900976 -0.00277782947
f 1402 1404 1403
v 0.00418742493 -0.00703966434 -0.00479146365
v 0.00601391293 -0.00623231535 -0.00201992534
v 0.00561576126 -0.00820742425 -0.0025876252
f 1405 1407 1406
v 0.00109175362 -0.00129994942 -0.000262827621
v 0.00394477393 -0.00175231962 -0.000160203876
v 0.00327456619 -0.000901668409 -0.00223527477
f 1408 1410 1409
v 0.00109175362 -0.00129994942 -0.000262827621
v 0.00327456619 -0.000901668409 -0.00223527477
v 0.0015403908 -0.000732689159 -0.00253515118
f 1411 1413 1412
v 0.000541032932 -0.00139080894 -0.00404198618
v 0.00184204582 -0.00179824237 -0.00417260017
v 0.000442451665 -0.00347813148 -0.00538231143
f 1414 1416 1415
v 0.00184204582 -0.00179824237 -0.00417260017
v 0.00172076525 -0.00374568226 -0.00524863426
v 0.000442451665 -0.00347813148 -0.00538231143
f 1417 1419 1418
v 0.00184204582 -0.00179824237 -0.00417260017
v 0.0037927628 -0.00274061385 -0.00379951634
v 0.00172076525 -0.00374568226 -0.00524863426
f 1420 1422 1421
v 0.0037927628 -0.00274061385 -0.00379951634
v 0.00316327969 -0.00392236907 -0.00470322775
v 0.00172076525 -0.00374568226 -0.00524863426
f 1423 1425 1424
v 0.0015403908 -0.000732689159 -0.00253515118
v 0.00184204582 -0.00179824237 -0.00417260017
v 0.000658130693 -0.000797960274 -0.00297155111
f 1426 1428 1427
v 0.00327456619 -0.000901668409 -0.00223527477
v 0.00184204582 -0.00179824237 -0.00417260017
v 0.0015403908 -0.000732689159 -0.00253515118
f 1429 1431 1430
v 0.0037927628 -0.00274061385 -0.00379951634
v 0.00184204582 -0.00179824237 -0.00417260017
v 0.00327456619 -0.000901668409 -0.00223527477
f 1432 1434 1433
v 0.0037927628 -0.00274061385 -0.00379951634
v 0.00327456619 -0.000901668409 -0.00223527477
v 0.00459804032 -0.00181606138 -0.00193308697
f 1435 1437 1436
v 0.00459804032 -0.00181606138 -0.00193308697
v 0.00475624583 -0.00193830983 -0.00159188967
v 0.0057986279 -0.00322491178 -0.00108492659
f 1438 1440 1439
v 0.0057986279 -0.00322491178 -0.00108492659
v 0.0050474111 -0.00325266847 -0.00269119482
v 0.00459804032 -0.00181606138 -0.00193308697
f 1441 1443 1442
v 0.00459804032 -0.00181606138 -0.00193308697
v 0.0050474111 -0.00325266847 -0.00269119482
v 0.0037927628 -0.00274061385 -0.00379951634
f 1444 1446 1445
v 0.00570802476 -0.00416845178 -0.00147237206
v 0.00577181709 -0.00363217514 -0.000988054217
v 0.00587069771 -0.0025614434 0.000193288884
f 1447 1449 1448
v 0.00576777602 -0.00363217514 -0.000988054217
v 0.00577181709 -0.00363217514 -0.000988054217
v 0.00570802476 -0.00416845178 -0.00147237206
f 1450 1452 1451
v 0.00587069771 -0.0025614434 0.000193288884
v 0.00577181709 -0.00363217514 -0.000988054217
v 0.00576777602 -0.00363217514 -0.000988054217
f 1453 1455 1454
v 0.00570802476 -0.00416845178 -0.00147237206
v 0.0057986279 -0.00322491178 -0.00108492659
v 0.00576777602 -0.00363217514 -0.000988054217
f 1456 1458 1457
v 0.00576777602 -0.00363217514 -0.000988054217
v 0.0057986279 -0.00322491178 -0.00108492659
v 0.00577181709 -0.00363217514 -0.000988054217
f 1459 1461 1460
v 0.00576777602 -0.00363217514 -0.000988054217
v 0.00585387388 -0.00312324119 -0.000820512741
v 0.00587069771 -0.0025614434 0.000193288884
f 1462 1464 1463
v 0.00576777602 -0.00363217514 -0.000988054217
v 0.00577181709 -0.00363217514 -0.000988054217
v 0.00585387388 -0.00312324119 -0.000820512741
f 1465 1467 1466
v 0.0057986279 -0.00322491178 -0.00108492659
v 0.00585387388 -0.00312324119 -0.000820512741
v 0.00577181709 -0.00363217514 -0.000988054217
f 1468 1470 1469
v 0.00585387388 -0.00312324119 -0.000820512741
v 0.00562667665 -0.00214659158 0.000106717346
v 0.00587069771 -0.0025614434 0.000193288884
f 1471 1473 1472
v 0.00585387388 -0.00312324119 -0.000820512741
v 0.00475624583 -0.00193830983 -0.00159188967
v 0.00562667665 -0.00214659158 0.000106717346
f 1474 1476 1475
v 0.00601391293 -0.00623231535 -0.00201992534
v 0.0050474111 -0.00325266847 -0.00269119482
v 0.00570802476 -0.00416845178 -0.00147237206
f 1477 1479 1478
v 0.00464578334 -0.00545333787 -0.00401217512
v 0.0050474111 -0.00325266847 -0.00269119482
v 0.00601391293 -0.00623231535 -0.00201992534
f 1480 1482 1481
v 0.0050474111 -0.00325266847 -0.00269119482
v 0.0057986279 -0.00322491178 -0.00108492659
v 0.00570802476 -0.00416845178 -0.00147237206
f 1483 1485 1484
v 0.00394477393 -0.00175231962 -0.000160203876
v 0.00562667665 -0.00214659158 0.000106717346
v 0.00475624583 -0.00193830983 -0.00159188967
f 1486 1488 1487
v 0.00585387388 -0.00312324119 -0.000820512741
v 0.0057986279 -0.00322491178 -0.00108492659
v 0.00475624583 -0.00193830983 -0.00159188967
f 1489 1491 1490
v 0.00394477393 -0.00175231962 -0.000160203876
v 0.00475624583 -0.00193830983 -0.00159188967
v 0.00425633407 -0.00164163339 -0.00138541936
f 1492 1494 1493
v 0.00425633407 -0.00164163339 -0.00138541936
v 0.00475624583 -0.00193830983 -0.00159188967
v 0.00456265407 -0.00154350982 -0.00145792383
f 1495 1497 1496
v 0.00456265407 -0.00154350982 -0.00145792383
v 0.00453760222 -0.0015599433 -0.00149949065
v 0.00425633407 -0.00164163339 -0.00138541936
f 1498 1500 1499
v 0.00475624583 -0.00193830983 -0.00159188967
v 0.00459804032 -0.00181606138 -0.00193308697
v 0.00453760222 -0.0015599433 -0.00149949065
f 1501 1503 1502
v 0.00440030344 -0.00145081949 -0.00161781481
v 0.00436604096 -0.00144677033 -0.00167306753
v 0.00436604096 -0.00146779494 -0.00167306753
f 1504 1506 1505
v 0.00436604096 -0.00144677033 -0.00167306753
v 0.00440030344 -0.00145081949 -0.00161781481
v 0.00459804032 -0.00181606138 -0.00193308697
f 1507 1509 1508
v 0.00436604096 -0.00144677033 -0.00167306753
v 0.00459804032 -0.00181606138 -0.00193308697
v 0.00436604096 -0.00146779494 -0.00167306753
f 1510 1512 1511
v 0.00456265407 -0.00154350982 -0.00145792383
v 0.00475624583 -0.00193830983 -0.00159188967
v 0.00453125758 -0.00152350831 -0.00150366122
f 1513 1515 1514
v 0.00453125758 -0.00152350831 -0.00150366122
v 0.00459804032 -0.00181606138 -0.00193308697
v 0.00440030344 -0.00145081949 -0.00161781481
f 1516 1518 1517
v 0.00327456619 -0.000901668409 -0.00223527477
v 0.00436604096 -0.00144677033 -0.00167306753
v 0.00436604096 -0.00146779494 -0.00167306753
f 1519 1521 1520
v 0.00459804032 -0.00181606138 -0.00193308697
v 0.00327456619 -0.000901668409 -0.00223527477
v 0.00436604096 -0.00146779494 -0.00167306753
f 1522 1524 1523
v 0.00456265407 -0.00154350982 -0.00145792383
v 0.00453125758 -0.00152350831 -0.00150366122
v 0.00453760222 -0.0015599433 -0.00149949065
f 1525 1527 1526
v 0.00453125758 -0.00152350831 -0.00150366122
v 0.00475624583 -0.00193830983 -0.00159188967
v 0.00453760222 -0.0015599433 -0.00149949065
f 1528 1530 1529
v 0.00459804032 -0.00181606138 -0.00193308697
v 0.00453125758 -0.00152350831 -0.00150366122
v 0.00453760222 -0.0015599433 -0.00149949065
f 1531 1533 1532
v 0.00425633407 -0.00164163339 -0.00138541936
v 0.00453760222 -0.0015599433 -0.00149949065
v 0.00453125758 -0.00152350831 -0.00150366122
f 1534 1536 1535
v 0.00425633407 -0.00164163339 -0.00138541936
v 0.00453125758 -0.00152350831 -0.00150366122
v 0.00440030344 -0.00145081949 -0.00161781481
f 1537 1539 1538
v 0.00425633407 -0.00164163339 -0.00138541936
v 0.00436604096 -0.00146779494 -0.00167306753
v 0.00436604096 -0.00144677033 -0.00167306753
f 1540 1542 1541
v 0.00440030344 -0.00145081949 -0.00161781481
v 0.00436604096 -0.00146779494 -0.00167306753
v 0.00425633407 -0.00164163339 -0.00138541936
f 1543 1545 1544
v 0.00436604096 -0.00144677033 -0.00167306753
v 0.00327456619 -0.000901668409 -0.00223527477
v 0.00425633407 -0.00164163339 -0.00138541936
f 1546 1548 1547
v 0.0050474111 -0.00325266847 -0.00269119482
v 0.00464578334 -0.00545333787 -0.00401217512
v 0.0037927628 -0.00274061385 -0.00379951634
f 1549 1551 1550
v 0.0037927628 -0.00274061385 -0.00379951634
v 0.00464578334 -0.00545333787 -0.00401217512
v 0.00316327969 -0.00392236907 -0.00470322775
f 1552 1554 1553
v 0.00394477393 -0.00175231962 -0.000160203876
v 0.00425633407 -0.00164163339 -0.00138541936
v 0.00327456619 -0.000901668409 -0.00223527477
f 1555 1557 1556
v -0.00111270429 -0.008512161 -0.00573832622
v 0.00165143629 -0.00849443168 -0.00588319999
v 0.00150148253 -0.0105254927 -0.00613567972
f 1558 1560 1559
v -0.000260447609 -0.00593535951 -0.0057652629
v 0.00145147833 -0.00721444085 -0.0060175531
v 0.00165143629 -0.00849443168 -0.00588319999
f 1561 1563 1562
v 0.00145147833 -0.00721444085 -0.0060175531
v 0.00333628268 -0.00753781133 -0.00547136442
v 0.00165143629 -0.00849443168 -0.00588319999
f 1564 1566 1565
v 0.00165143629 -0.00849443168 -0.00588319999
v 0.00319937135 -0.00993226204 -0.00559917789
v 0.00150148253 -0.0105254927 -0.00613567972
f 1567 1569 1568
v 0.00165143629 -0.00849443168 -0.00588319999
v 0.00333628268 -0.00753781133 -0.00547136442
v 0.00319937135 -0.00993226204 -0.00559917789
f 1570 1572 1571
v 0.00333628268 -0.00753781133 -0.00547136442
v 0.00394351118 -0.00926353605 -0.00555826264
v 0.00319937135 -0.00993226204 -0.00559917789
f 1573 1575 1574
v 0.00611825308 -0.00972284615 -0.000986180385
v 0.00642655868 -0.00813180595 -0.000576395405
v 0.00671737216 -0.00910941089 0.000388444369
f 1576 1578 1577
v 0.00601391293 -0.00623231535 -0.00201992534
v 0.00663012033 -0.00649052163 -0.000222660356
v 0.00642655868 -0.00813180595 -0.000576395405
f 1579 1581 1580
v 0.00333628268 -0.00753781133 -0.00547136442
v 0.00418742493 -0.00703966434 -0.00479146365
v 0.0043808428 -0.00837948901 -0.00500981841
f 1582 1584 1583
v 0.0043808428 -0.00837948901 -0.00500981841
v 0.00394351118 -0.00926353605 -0.00555826264
v 0.00333628268 -0.00753781133 -0.00547136442
f 1585 1587 1586
v 0.000247038975 -0.00192914376 0.00427558116
v 0.00109175362 -0.00129994942 -0.000262827621
v -0.000955783071 -0.00136297022 0.00285040969
f 1588 1590 1589
v 0.000442451665 -0.00347813148 -0.00538231143
v 0.00172076525 -0.00374568226 -0.00524863426
v 0.00145147833 -0.00721444085 -0.0060175531
f 1591 1593 1592
v -0.000659185207 -0.000737865957 -0.00189840321
v -0.00178348746 -0.000511018152 -0.0017026925
v -0.00206550139 -0.00108340437 0.00205793222
f 1594 1596 1595
v 0.00609668568 -0.00500696915 -0.000153016117
v 0.00570802476 -0.00416845178 -0.00147237206
v 0.00587069771 -0.0025614434 0.000193288884
f 1597 1599 1598
v 0.00305552858 -0.0104841216 0.00610884163
v 0.00481071038 -0.0105433464 0.00606144604
v 0.00309306015 -0.00978623211 0.00592961223
f 1600 1602 1601
