<svg xmlns="http://www.w3.org/2000/svg" width="900" height="360" viewBox="0 0 900 360">
<rect width="100%" height="100%" fill="white"/>
<text x="45" y="22" font-family="sans-serif" font-size="16">Recorded body speed</text>
<path d="M45,45 V315 H855" fill="none" stroke="#555"/>
<polyline points="45.0,315.0 45.5,256.3 46.1,193.7 46.6,133.7 47.1,90.0 47.7,208.2 48.2,246.9 48.7,228.8 49.3,288.5 49.8,279.3 50.3,276.3 50.9,292.2 51.4,299.8 52.0,300.3 52.5,302.5 53.0,310.9 53.6,304.9 54.1,310.2 54.6,309.0 55.2,305.0 55.7,304.3 56.2,306.8 56.8,307.0 57.3,306.0 57.8,307.1 58.4,306.9 58.9,308.1 59.4,308.8 60.0,309.9 60.5,312.3 61.0,311.4 61.6,311.7 62.1,310.7 62.6,311.5 63.2,312.2 63.7,307.7 64.2,310.0 64.8,306.6 65.3,301.0 65.9,298.8 66.4,295.1 66.9,295.7 67.5,308.0 68.0,308.8 68.5,305.7 69.1,306.8 69.6,298.7 70.1,291.9 70.7,300.1 71.2,289.2 71.7,296.0 72.3,295.0 72.8,299.1 73.3,296.9 73.9,288.9 74.4,284.1 74.9,288.6 75.5,280.4 76.0,290.5 76.5,275.5 77.1,288.0 77.6,290.6 78.1,293.2 78.7,297.9 79.2,298.8 79.8,306.1 80.3,305.3 80.8,297.9 81.4,292.9 81.9,304.8 82.4,303.4 83.0,305.5 83.5,303.6 84.0,303.0 84.6,302.6 85.1,303.1 85.6,306.4 86.2,304.5 86.7,301.1 87.2,286.5 87.8,286.5 88.3,292.2 88.8,296.6 89.4,296.1 89.9,294.8 90.4,310.0 91.0,299.3 91.5,306.0 92.0,309.0 92.6,307.5 93.1,298.9 93.7,306.3 94.2,306.9 94.7,307.3 95.3,304.7 95.8,310.9 96.3,309.1 96.9,311.5 97.4,312.3 97.9,312.7 98.5,312.5 99.0,310.1 99.5,301.8 100.1,306.0 100.6,298.2 101.1,304.3 101.7,300.6 102.2,304.4 102.7,297.0 103.3,298.5 103.8,299.9 104.3,301.3 104.9,298.1 105.4,303.1 106.0,298.9 106.5,301.0 107.0,308.6 107.6,299.9 108.1,310.2 108.6,299.2 109.2,294.6 109.7,307.8 110.2,314.1 110.8,307.7 111.3,310.4 111.8,303.3 112.4,307.2 112.9,309.5 113.4,303.1 114.0,314.0 114.5,307.3 115.0,312.4 115.6,308.7 116.1,307.6 116.6,305.1 117.2,312.2 117.7,312.1 118.2,310.4 118.8,311.1 119.3,311.3 119.9,310.0 120.4,304.7 120.9,309.7 121.5,313.5 122.0,313.7 122.5,312.6 123.1,311.5 123.6,309.7 124.1,309.1 124.7,309.5 125.2,312.3 125.7,312.3 126.3,312.3 126.8,312.9 127.3,310.1 127.9,308.7 128.4,310.0 128.9,313.2 129.5,312.0 130.0,310.4 130.5,313.0 131.1,311.7 131.6,312.4 132.1,312.4 132.7,311.3 133.2,310.5 133.8,309.5 134.3,311.8 134.8,313.0 135.4,310.5 135.9,309.9 136.4,310.0 137.0,310.1 137.5,313.0 138.0,313.8 138.6,311.7 139.1,308.1 139.6,308.1 140.2,311.4 140.7,314.6 141.2,313.8 141.8,308.7 142.3,307.5 142.8,307.9 143.4,311.9 143.9,308.5 144.4,304.4 145.0,311.7 145.5,310.4 146.0,307.9 146.6,310.1 147.1,312.5 147.7,312.9 148.2,312.4 148.7,304.4 149.3,309.1 149.8,305.6 150.3,312.9 150.9,306.5 151.4,303.7 151.9,303.3 152.5,307.0 153.0,293.9 153.5,306.4 154.1,306.8 154.6,302.8 155.1,298.1 155.7,304.0 156.2,301.6 156.7,303.5 157.3,286.9 157.8,310.0 158.3,296.1 158.9,308.5 159.4,309.5 160.0,309.9 160.5,302.7 161.0,305.9 161.6,311.5 162.1,307.3 162.6,306.4 163.2,309.2 163.7,309.7 164.2,310.8 164.8,311.2 165.3,307.4 165.8,302.1 166.4,301.5 166.9,309.9 167.4,309.1 168.0,310.6 168.5,312.4 169.0,314.4 169.6,311.0 170.1,308.7 170.6,308.7 171.2,302.3 171.7,314.0 172.2,305.9 172.8,309.7 173.3,304.3 173.9,300.5 174.4,311.5 174.9,312.0 175.5,309.6 176.0,306.5 176.5,307.3 177.1,304.2 177.6,311.5 178.1,297.9 178.7,311.0 179.2,297.9 179.7,309.0 180.3,310.3 180.8,312.9 181.3,312.6 181.9,311.6 182.4,301.5 182.9,304.9 183.5,302.9 184.0,306.5 184.5,306.8 185.1,308.8 185.6,308.9 186.1,308.4 186.7,307.0 187.2,306.5 187.8,310.4 188.3,313.7 188.8,307.1 189.4,307.8 189.9,307.3 190.4,305.1 191.0,306.0 191.5,306.9 192.0,306.3 192.6,303.9 193.1,304.4 193.6,305.1 194.2,305.8 194.7,304.6 195.2,303.2 195.8,307.1 196.3,305.1 196.8,307.9 197.4,310.6 197.9,306.7 198.4,292.7 199.0,285.3 199.5,278.4 200.0,277.8 200.6,278.7 201.1,276.4 201.7,277.7 202.2,277.1 202.7,258.8 203.3,250.7 203.8,225.9 204.3,220.7 204.9,193.8 205.4,156.5 205.9,141.3 206.5,178.9 207.0,200.8 207.5,251.7 208.1,231.9 208.6,221.7 209.1,188.9 209.7,185.9 210.2,261.0 210.7,277.6 211.3,263.8 211.8,266.0 212.3,291.1 212.9,301.6 213.4,304.5 214.0,311.9 214.5,300.1 215.0,288.3 215.6,274.1 216.1,257.1 216.6,248.9 217.2,259.9 217.7,301.7 218.2,290.6 218.8,312.6 219.3,301.3 219.8,291.7 220.4,282.6 220.9,225.4 221.4,256.0 222.0,270.7 222.5,304.5 223.0,286.8 223.6,276.4 224.1,302.6 224.6,292.0 225.2,287.8 225.7,282.9 226.2,289.9 226.8,296.4 227.3,310.9 227.9,293.6 228.4,297.8 228.9,309.2 229.5,296.7 230.0,291.1 230.5,275.0 231.1,275.6 231.6,273.8 232.1,310.6 232.7,312.6 233.2,299.3 233.7,307.9 234.3,311.4 234.8,303.0 235.3,306.9 235.9,307.9 236.4,311.1 236.9,311.2 237.5,309.7 238.0,306.5 238.5,309.8 239.1,312.5 239.6,312.8 240.1,306.5 240.7,310.3 241.2,311.1 241.8,308.8 242.3,307.5 242.8,314.7 243.4,312.2 243.9,313.3 244.4,313.5 245.0,312.2 245.5,305.5 246.0,310.3 246.6,311.0 247.1,313.0 247.6,311.6 248.2,314.2 248.7,313.4 249.2,313.5 249.8,305.5 250.3,314.6 250.8,314.1 251.4,310.7 251.9,305.4 252.4,314.2 253.0,312.4 253.5,312.8 254.0,314.1 254.6,312.8 255.1,312.3 255.7,314.4 256.2,314.5 256.7,312.0 257.3,310.8 257.8,313.9 258.3,312.3 258.9,311.2 259.4,311.4 259.9,314.8 260.5,314.4 261.0,314.5 261.5,312.1 262.1,313.8 262.6,314.5 263.1,314.4 263.7,314.7 264.2,314.1 264.7,313.4 265.3,313.3 265.8,313.2 266.3,313.1 266.9,314.8 267.4,314.8 268.0,314.8 268.5,314.5 269.0,314.9 269.6,312.1 270.1,311.8 270.6,314.1 271.2,314.1 271.7,313.4 272.2,313.0 272.8,313.6 273.3,314.6 273.8,313.6 274.4,311.0 274.9,311.5 275.4,314.4 276.0,314.7 276.5,314.9 277.0,314.8 277.6,313.4 278.1,312.8 278.6,312.9 279.2,313.0 279.7,313.2 280.2,312.8 280.8,313.0 281.3,313.8 281.9,313.9 282.4,313.4 282.9,313.6 283.5,312.6 284.0,313.4 284.5,313.3 285.1,313.5 285.6,313.8 286.1,313.6 286.7,313.1 287.2,312.2 287.7,312.5 288.3,314.7 288.8,313.3 289.3,307.5 289.9,314.0 290.4,314.9 290.9,313.7 291.5,310.7 292.0,311.0 292.5,314.3 293.1,314.6 293.6,314.9 294.1,314.6 294.7,313.1 295.2,310.5 295.8,312.0 296.3,314.0 296.8,314.8 297.4,313.6 297.9,312.4 298.4,313.5 299.0,314.8 299.5,314.9 300.0,314.9 300.6,314.7 301.1,312.2 301.6,313.1 302.2,313.2 302.7,312.9 303.2,314.2 303.8,314.2 304.3,314.5 304.8,312.8 305.4,313.2 305.9,313.0 306.4,313.0 307.0,313.1 307.5,313.2 308.0,312.7 308.6,312.4 309.1,313.5 309.7,314.8 310.2,313.1 310.7,314.2 311.3,314.9 311.8,314.8 312.3,314.5 312.9,313.9 313.4,313.7 313.9,312.7 314.5,312.4 315.0,313.6 315.5,314.4 316.1,314.6 316.6,314.1 317.1,314.4 317.7,311.9 318.2,313.6 318.7,314.7 319.3,313.9 319.8,312.8 320.3,311.7 320.9,311.1 321.4,312.3 322.0,314.4 322.5,314.9 323.0,314.7 323.6,314.6 324.1,314.3 324.6,312.3 325.2,313.2 325.7,313.7 326.2,314.0 326.8,313.4 327.3,314.2 327.8,313.6 328.4,314.2 328.9,313.2 329.4,312.5 330.0,312.5 330.5,314.6 331.0,314.8 331.6,313.5 332.1,312.6 332.6,314.2 333.2,314.3 333.7,313.0 334.2,313.1 334.8,313.4 335.3,313.9 335.9,314.9 336.4,313.0 336.9,314.3 337.5,314.0 338.0,314.1 338.5,314.8 339.1,314.9 339.6,313.6 340.1,305.6 340.7,311.7 341.2,314.7 341.7,314.5 342.3,314.7 342.8,314.9 343.3,314.9 343.9,314.8 344.4,314.9 344.9,314.8 345.5,314.9 346.0,314.7 346.5,314.9 347.1,314.9 347.6,314.9 348.1,314.8 348.7,314.5 349.2,314.8 349.8,314.0 350.3,313.4 350.8,314.2 351.4,314.7 351.9,314.8 352.4,315.0 353.0,314.9 353.5,314.9 354.0,314.0 354.6,312.7 355.1,312.5 355.6,315.0 356.2,313.4 356.7,308.8 357.2,307.8 357.8,314.1 358.3,314.9 358.8,315.0 359.4,314.5 359.9,312.3 360.4,310.4 361.0,311.5 361.5,314.5 362.0,314.7 362.6,314.8 363.1,314.7 363.7,314.7 364.2,314.6 364.7,314.1 365.3,313.1 365.8,312.0 366.3,314.3 366.9,314.6 367.4,315.0 367.9,314.9 368.5,314.6 369.0,314.5 369.5,314.4 370.1,312.9 370.6,311.3 371.1,312.8 371.7,314.6 372.2,314.0 372.7,313.1 373.3,314.7 373.8,314.7 374.3,314.7 374.9,314.2 375.4,314.5 376.0,314.3 376.5,312.0 377.0,309.3 377.6,310.9 378.1,309.4 378.6,310.1 379.2,311.1 379.7,312.9 380.2,313.9 380.8,314.6 381.3,314.3 381.8,313.1 382.4,313.6 382.9,313.4 383.4,314.0 384.0,314.0 384.5,314.5 385.0,314.8 385.6,313.9 386.1,312.8 386.6,314.6 387.2,314.9 387.7,313.2 388.2,313.8 388.8,310.2 389.3,312.9 389.9,312.1 390.4,313.0 390.9,314.7 391.5,314.6 392.0,313.6 392.5,312.1 393.1,314.0 393.6,314.8 394.1,314.7 394.7,314.8 395.2,314.5 395.7,314.6 396.3,312.5 396.8,312.2 397.3,314.9 397.9,311.7 398.4,304.8 398.9,312.8 399.5,313.5 400.0,314.8 400.5,314.9 401.1,314.9 401.6,314.5 402.1,310.4 402.7,312.1 403.2,313.6 403.8,313.7 404.3,314.5 404.8,314.6 405.4,314.7 405.9,314.5 406.4,314.6 407.0,314.2 407.5,313.0 408.0,313.4 408.6,313.0 409.1,313.6 409.6,314.7 410.2,315.0 410.7,314.4 411.2,312.6 411.8,313.5 412.3,313.6 412.8,313.4 413.4,314.4 413.9,314.1 414.4,310.4 415.0,309.3 415.5,312.9 416.0,314.8 416.6,313.9 417.1,312.6 417.7,313.5 418.2,314.8 418.7,314.8 419.3,314.9 419.8,314.9 420.3,314.8 420.9,314.7 421.4,314.7 421.9,314.8 422.5,314.8 423.0,313.9 423.5,312.9 424.1,312.6 424.6,312.6 425.1,314.0 425.7,314.8 426.2,314.2 426.7,313.1 427.3,312.2 427.8,312.6 428.3,313.4 428.9,313.0 429.4,313.0 430.0,312.1 430.5,312.6 431.0,313.1 431.6,311.4 432.1,313.9 432.6,314.6 433.2,313.0 433.7,308.6 434.2,311.9 434.8,314.5 435.3,314.9 435.8,312.8 436.4,310.9 436.9,313.4 437.4,314.9 438.0,314.7 438.5,313.9 439.0,314.9 439.6,314.9 440.1,314.9 440.6,313.5 441.2,314.3 441.7,314.8 442.2,314.9 442.8,315.0 443.3,314.9 443.9,314.3 444.4,312.9 444.9,312.9 445.5,313.1 446.0,314.8 446.5,314.8 447.1,314.1 447.6,314.1 448.1,314.5 448.7,314.8 449.2,315.0 449.7,313.5 450.3,313.7 450.8,314.3 451.3,313.3 451.9,313.5 452.4,313.7 452.9,313.7 453.5,314.4 454.0,314.8 454.5,314.9 455.1,314.9 455.6,314.6 456.1,314.6 456.7,314.7 457.2,314.1 457.8,315.0 458.3,313.3 458.8,311.8 459.4,313.7 459.9,314.5 460.4,314.7 461.0,314.9 461.5,314.9 462.0,314.6 462.6,314.9 463.1,313.9 463.6,313.1 464.2,313.2 464.7,313.4 465.2,313.7 465.8,313.6 466.3,314.1 466.8,314.0 467.4,314.9 467.9,314.8 468.4,313.6 469.0,311.1 469.5,311.9 470.0,314.7 470.6,314.8 471.1,314.0 471.7,310.9 472.2,311.7 472.7,314.8 473.3,314.6 473.8,313.4 474.3,313.1 474.9,313.9 475.4,314.1 475.9,314.8 476.5,313.5 477.0,314.5 477.5,314.2 478.1,314.4 478.6,314.9 479.1,314.9 479.7,314.8 480.2,314.7 480.7,312.9 481.3,310.8 481.8,311.7 482.3,314.2 482.9,314.8 483.4,314.8 484.0,314.7 484.5,314.6 485.0,314.5 485.6,314.7 486.1,314.7 486.6,314.8 487.2,314.8 487.7,313.9 488.2,312.4 488.8,312.0 489.3,313.8 489.8,314.5 490.4,314.9 490.9,314.8 491.4,314.3 492.0,314.2 492.5,314.3 493.0,314.6 493.6,313.8 494.1,312.0 494.6,313.4 495.2,313.7 495.7,314.4 496.2,314.2 496.8,314.2 497.3,314.4 497.9,312.9 498.4,314.2 498.9,309.3 499.5,314.4 500.0,314.6 500.5,314.7 501.1,313.1 501.6,312.7 502.1,312.8 502.7,311.7 503.2,312.2 503.7,313.5 504.3,311.0 504.8,313.4 505.3,314.4 505.9,313.6 506.4,313.7 506.9,314.3 507.5,313.2 508.0,311.7 508.5,313.1 509.1,314.8 509.6,313.8 510.1,314.2 510.7,313.6 511.2,311.3 511.8,310.9 512.3,313.3 512.8,314.7 513.4,314.4 513.9,314.8 514.4,314.7 515.0,314.9 515.5,314.9 516.0,313.6 516.6,314.2 517.1,314.9 517.6,314.7 518.2,314.8 518.7,314.3 519.2,313.9 519.8,314.0 520.3,313.9 520.8,313.9 521.4,314.0 521.9,314.8 522.4,314.9 523.0,314.0 523.5,314.7 524.0,312.7 524.6,311.9 525.1,313.5 525.7,314.8 526.2,314.9 526.7,314.9 527.3,314.9 527.8,313.4 528.3,313.9 528.9,314.5 529.4,314.9 529.9,314.4 530.5,313.7 531.0,313.5 531.5,313.2 532.1,311.9 532.6,311.4 533.1,312.1 533.7,314.0 534.2,314.4 534.7,313.1 535.3,312.2 535.8,313.4 536.3,312.9 536.9,313.5 537.4,312.0 538.0,313.2 538.5,314.6 539.0,314.9 539.6,314.4 540.1,312.7 540.6,312.3 541.2,313.2 541.7,313.9 542.2,313.3 542.8,313.4 543.3,314.6 543.8,314.5 544.4,314.4 544.9,313.9 545.4,313.2 546.0,313.3 546.5,313.0 547.0,311.4 547.6,311.0 548.1,311.5 548.6,313.4 549.2,314.5 549.7,313.9 550.2,313.8 550.8,313.6 551.3,307.6 551.9,313.7 552.4,314.7 552.9,313.6 553.5,311.2 554.0,314.7 554.5,314.6 555.1,309.7 555.6,311.8 556.1,314.8 556.7,314.8 557.2,314.8 557.7,314.8 558.3,314.6 558.8,313.2 559.3,312.3 559.9,313.1 560.4,314.0 560.9,314.8 561.5,314.6 562.0,313.8 562.5,314.1 563.1,314.7 563.6,313.5 564.1,313.0 564.7,314.4 565.2,314.8 565.8,313.9 566.3,313.6 566.8,314.2 567.4,314.1 567.9,314.7 568.4,314.9 569.0,314.8 569.5,314.9 570.0,314.6 570.6,314.7 571.1,314.9 571.6,314.6 572.2,313.7 572.7,311.9 573.2,312.4 573.8,312.2 574.3,314.1 574.8,314.8 575.4,314.6 575.9,314.3 576.4,312.2 577.0,313.3 577.5,314.0 578.0,314.6 578.6,314.4 579.1,314.7 579.7,314.2 580.2,314.2 580.7,314.7 581.3,314.6 581.8,314.8 582.3,314.8 582.9,314.7 583.4,314.8 583.9,314.9 584.5,314.9 585.0,314.7 585.5,314.4 586.1,314.5 586.6,314.9 587.1,313.1 587.7,313.5 588.2,314.0 588.7,314.0 589.3,312.1 589.8,314.9 590.3,314.4 590.9,313.2 591.4,313.0 592.0,312.7 592.5,311.8 593.0,313.8 593.6,313.4 594.1,312.3 594.6,311.0 595.2,313.3 595.7,314.0 596.2,313.6 596.8,314.3 597.3,314.1 597.8,314.7 598.4,314.6 598.9,314.9 599.4,314.9 600.0,314.6 600.5,313.9 601.0,313.0 601.6,313.5 602.1,314.2 602.6,314.8 603.2,314.5 603.7,314.7 604.2,314.4 604.8,314.6 605.3,314.3 605.9,313.5 606.4,313.7 606.9,313.0 607.5,314.3 608.0,314.8 608.5,314.9 609.1,314.9 609.6,314.8 610.1,314.1 610.7,313.9 611.2,311.5 611.7,312.1 612.3,313.1 612.8,312.6 613.3,313.5 613.9,313.0 614.4,314.2 614.9,314.8 615.5,314.6 616.0,314.8 616.5,315.0 617.1,314.9 617.6,315.0 618.1,314.4 618.7,314.2 619.2,313.6 619.8,313.4 620.3,314.4 620.8,314.1 621.4,314.3 621.9,314.8 622.4,314.8 623.0,314.7 623.5,314.5 624.0,314.5 624.6,314.1 625.1,314.3 625.6,314.3 626.2,314.7 626.7,314.6 627.2,314.6 627.8,313.7 628.3,313.3 628.8,313.2 629.4,313.4 629.9,313.2 630.4,313.2 631.0,312.9 631.5,313.7 632.0,313.2 632.6,313.2 633.1,314.8 633.7,314.6 634.2,314.6 634.7,314.4 635.3,314.2 635.8,314.3 636.3,314.7 636.9,314.5 637.4,314.5 637.9,314.8 638.5,314.8 639.0,314.8 639.5,314.8 640.1,315.0 640.6,314.8 641.1,314.9 641.7,314.8 642.2,315.0 642.7,314.9 643.3,313.9 643.8,314.5 644.3,314.8 644.9,314.7 645.4,314.9 646.0,314.8 646.5,314.9 647.0,314.8 647.6,314.7 648.1,314.9 648.6,314.7 649.2,315.0 649.7,314.9 650.2,314.9 650.8,314.2 651.3,313.1 651.8,312.5 652.4,313.4 652.9,314.8 653.4,314.8 654.0,314.8 654.5,314.6 655.0,314.3 655.6,314.4 656.1,314.7 656.6,315.0 657.2,314.9 657.7,314.9 658.2,315.0 658.8,314.6 659.3,314.5 659.9,312.9 660.4,312.5 660.9,314.5 661.5,314.9 662.0,314.5 662.5,313.4 663.1,313.7 663.6,313.9 664.1,314.5 664.7,314.8 665.2,313.9 665.7,314.5 666.3,315.0 666.8,314.9 667.3,314.9 667.9,314.0 668.4,312.5 668.9,312.0 669.5,313.5 670.0,313.4 670.5,313.7 671.1,314.3 671.6,314.0 672.1,312.4 672.7,312.1 673.2,314.9 673.8,315.0 674.3,314.8 674.8,314.7 675.4,314.7 675.9,314.9 676.4,314.8 677.0,314.8 677.5,314.6 678.0,314.1 678.6,314.9 679.1,314.0 679.6,312.1 680.2,313.6 680.7,314.6 681.2,314.5 681.8,312.5 682.3,312.6 682.8,312.5 683.4,314.6 683.9,312.7 684.4,313.2 685.0,314.8 685.5,314.9 686.0,314.9 686.6,313.2 687.1,310.8 687.7,312.6 688.2,314.9 688.7,314.2 689.3,310.3 689.8,311.9 690.3,313.5 690.9,314.9 691.4,314.6 691.9,314.7 692.5,313.6 693.0,312.5 693.5,313.7 694.1,314.2 694.6,314.8 695.1,314.8 695.7,314.9 696.2,314.8 696.7,314.8 697.3,314.7 697.8,314.6 698.3,314.6 698.9,314.6 699.4,314.9 700.0,314.8 700.5,314.7 701.0,314.5 701.6,314.1 702.1,314.5 702.6,314.9 703.2,314.8 703.7,315.0 704.2,313.1 704.8,312.8 705.3,314.0 705.8,314.7 706.4,314.9 706.9,313.7 707.4,313.1 708.0,314.1 708.5,314.7 709.0,314.7 709.6,314.4 710.1,314.4 710.6,314.5 711.2,314.6 711.7,314.8 712.2,314.9 712.8,314.4 713.3,314.7 713.9,314.9 714.4,314.4 714.9,313.1 715.5,312.7 716.0,311.7 716.5,313.1 717.1,312.8 717.6,313.6 718.1,313.4 718.7,313.2 719.2,314.7 719.7,314.6 720.3,313.7 720.8,310.2 721.3,314.7 721.9,314.4 722.4,313.9 722.9,314.7 723.5,314.8 724.0,314.8 724.5,314.9 725.1,314.8 725.6,314.0 726.1,312.3 726.7,313.2 727.2,313.9 727.8,314.7 728.3,314.8 728.8,314.7 729.4,314.7 729.9,314.8 730.4,314.8 731.0,314.8 731.5,314.8 732.0,314.8 732.6,314.8 733.1,314.7 733.6,314.7 734.2,314.8 734.7,314.8 735.2,314.9 735.8,314.9 736.3,314.7 736.8,314.8 737.4,314.8 737.9,314.8 738.4,314.9 739.0,314.9 739.5,314.8 740.0,314.9 740.6,314.9 741.1,314.8 741.7,314.8 742.2,314.7 742.7,313.9 743.3,313.8 743.8,313.7 744.3,315.0 744.9,314.6 745.4,313.4 745.9,312.3 746.5,312.9 747.0,313.5 747.5,314.8 748.1,314.7 748.6,314.6 749.1,314.2 749.7,314.8 750.2,314.9 750.7,314.9 751.3,314.9 751.8,314.8 752.3,314.8 752.9,314.8 753.4,314.9 754.0,313.6 754.5,312.5 755.0,312.6 755.6,314.7 756.1,314.7 756.6,312.3 757.2,308.2 757.7,309.7 758.2,314.9 758.8,314.9 759.3,314.8 759.8,313.8 760.4,313.6 760.9,314.0 761.4,314.8 762.0,314.9 762.5,315.0 763.0,314.9 763.6,314.9 764.1,314.6 764.6,313.5 765.2,313.0 765.7,313.2 766.2,313.3 766.8,314.8 767.3,314.8 767.9,314.4 768.4,314.2 768.9,313.5 769.5,313.1 770.0,314.4 770.5,313.5 771.1,313.9 771.6,314.2 772.1,314.2 772.7,313.6 773.2,313.0 773.7,313.5 774.3,315.0 774.8,314.4 775.3,313.3 775.9,311.7 776.4,312.4 776.9,313.4 777.5,314.0 778.0,314.8 778.5,314.4 779.1,314.1 779.6,312.9 780.1,312.7 780.7,314.2 781.2,314.9 781.8,314.7 782.3,313.3 782.8,313.9 783.4,313.4 783.9,313.9 784.4,314.8 785.0,314.5 785.5,314.2 786.0,314.4 786.6,314.5 787.1,313.7 787.6,313.8 788.2,314.1 788.7,314.1 789.2,314.5 789.8,314.6 790.3,314.4 790.8,314.2 791.4,313.7 791.9,308.9 792.4,312.3 793.0,314.3 793.5,314.6 794.0,312.4 794.6,311.9 795.1,313.4 795.7,314.9 796.2,312.7 796.7,311.6 797.3,310.9 797.8,313.7 798.3,314.9 798.9,314.8 799.4,314.7 799.9,314.3 800.5,311.5 801.0,308.9 801.5,313.3 802.1,314.9 802.6,314.9 803.1,314.9 803.7,314.1 804.2,311.0 804.7,311.2 805.3,311.4 805.8,312.9 806.3,313.7 806.9,313.5 807.4,313.1 808.0,313.3 808.5,314.3 809.0,312.3 809.6,309.8 810.1,312.5 810.6,314.7 811.2,314.9 811.7,314.9 812.2,315.0 812.8,314.6 813.3,314.0 813.8,313.2 814.4,311.1 814.9,309.7 815.4,313.8 816.0,314.6 816.5,313.6 817.0,314.3 817.6,314.8 818.1,314.8 818.6,313.8 819.2,312.6 819.7,313.5 820.2,314.1 820.8,314.1 821.3,312.3 821.9,313.1 822.4,313.6 822.9,313.7 823.5,314.4 824.0,313.8 824.5,314.1 825.1,314.6 825.6,314.6 826.1,314.9 826.7,314.6 827.2,314.5 827.7,313.2 828.3,313.0 828.8,313.9 829.3,314.5 829.9,314.6 830.4,314.5 830.9,314.8 831.5,314.8 832.0,314.6 832.5,314.7 833.1,314.9 833.6,314.9 834.1,314.8 834.7,314.3 835.2,312.5 835.8,311.2 836.3,312.1 836.8,313.9 837.4,312.1 837.9,312.4 838.4,313.4 839.0,310.9 839.5,313.1 840.0,313.3 840.6,313.7 841.1,314.4 841.6,310.6 842.2,313.1 842.7,312.4 843.2,310.9 843.8,314.6 844.3,311.9 844.8,312.9 845.4,313.7 845.9,311.0 846.4,313.6 847.0,314.3 847.5,310.2 848.0,309.5 848.6,311.6 849.1,313.4 849.7,314.8 850.2,313.4 850.7,312.7 851.3,314.7 851.8,314.6 852.3,309.2 852.9,309.7 853.4,313.5 853.9,313.6 854.5,314.7 855.0,314.6" fill="none" stroke="#1565c0" stroke-width="1"/>
<text x="45" y="352" fill="#1565c0" font-family="sans-serif" font-size="11">enabled</text>
</svg>