<svg xmlns="http://www.w3.org/2000/svg" width="900" height="360" viewBox="0 0 900 360">
<rect width="100%" height="100%" fill="white"/>
<text x="45" y="22" font-family="sans-serif" font-size="16">Pre-fall/rollover joint coordination</text>
<path d="M45,45 V315 H855" fill="none" stroke="#555"/>
<polyline points="45.0,45.2 56.4,45.2 67.8,45.2 79.2,45.2 90.6,45.2 102.0,45.2 113.5,45.2 124.9,45.2 136.3,45.2 147.7,45.2 159.1,45.2 170.5,45.2 181.9,45.2 193.3,45.2 204.7,45.2 216.1,45.2 227.5,45.2 238.9,45.2 250.4,45.2 261.8,45.2 273.2,45.2 284.6,45.2 296.0,45.2 307.4,45.2 318.8,45.2 330.2,45.2 341.6,45.2 353.0,45.2 364.4,45.2 375.8,45.2 387.3,45.2 398.7,45.2 410.1,45.2 421.5,45.2 432.9,45.2 444.3,45.2 455.7,45.2 467.1,45.2 478.5,45.2 489.9,45.2 501.3,45.2 512.7,45.2 524.2,45.2 535.6,45.2 547.0,45.2 558.4,45.2 569.8,45.2 581.2,45.2 592.6,45.2 604.0,45.2 615.4,45.2 626.8,45.2 638.2,45.2 649.6,45.2 661.1,45.2 672.5,45.2 683.9,45.2 695.3,45.2 706.7,45.2 718.1,45.2 729.5,45.2 740.9,45.2 752.3,45.2 763.7,45.2 775.1,45.2 786.5,45.2 798.0,45.2 809.4,45.2 820.8,45.2 832.2,45.2 843.6,45.2 855.0,45.2" fill="none" stroke="#1565c0" stroke-width="1"/>
<text x="45" y="352" fill="#1565c0" font-family="sans-serif" font-size="11">joint_LFTibia</text>
<polyline points="45.0,45.2 56.4,45.2 67.8,45.2 79.2,45.2 90.6,45.2 102.0,45.2 113.5,45.2 124.9,45.2 136.3,45.2 147.7,45.2 159.1,45.2 170.5,45.2 181.9,45.2 193.3,45.2 204.7,45.2 216.1,45.2 227.5,45.2 238.9,45.2 250.4,45.2 261.8,45.2 273.2,45.2 284.6,45.2 296.0,45.2 307.4,45.2 318.8,45.2 330.2,45.2 341.6,45.2 353.0,45.2 364.4,45.3 375.8,45.3 387.3,45.4 398.7,45.4 410.1,45.5 421.5,45.5 432.9,45.6 444.3,45.6 455.7,45.7 467.1,45.7 478.5,45.8 489.9,45.8 501.3,45.8 512.7,45.9 524.2,45.9 535.6,46.0 547.0,46.1 558.4,46.1 569.8,46.2 581.2,46.2 592.6,46.3 604.0,46.3 615.4,46.4 626.8,46.5 638.2,46.5 649.6,46.6 661.1,46.6 672.5,46.7 683.9,46.7 695.3,46.8 706.7,46.9 718.1,46.9 729.5,47.0 740.9,47.0 752.3,47.1 763.7,47.1 775.1,47.2 786.5,47.2 798.0,47.3 809.4,47.4 820.8,47.4 832.2,47.5 843.6,47.5 855.0,47.6" fill="none" stroke="#c62828" stroke-width="1"/>
<text x="165" y="352" fill="#c62828" font-family="sans-serif" font-size="11">joint_LMTibia</text>
<polyline points="45.0,45.2 56.4,45.2 67.8,45.2 79.2,45.2 90.6,45.2 102.0,45.2 113.5,45.2 124.9,45.2 136.3,45.2 147.7,45.2 159.1,45.2 170.5,45.2 181.9,45.2 193.3,45.2 204.7,45.2 216.1,45.2 227.5,45.2 238.9,45.2 250.4,45.2 261.8,45.2 273.2,45.2 284.6,45.2 296.0,45.2 307.4,45.2 318.8,45.2 330.2,45.2 341.6,45.2 353.0,45.2 364.4,45.2 375.8,45.2 387.3,45.2 398.7,45.2 410.1,45.2 421.5,45.2 432.9,45.2 444.3,45.2 455.7,45.2 467.1,45.2 478.5,45.2 489.9,45.2 501.3,45.2 512.7,45.2 524.2,45.2 535.6,45.2 547.0,45.2 558.4,45.2 569.8,45.2 581.2,45.2 592.6,45.2 604.0,45.2 615.4,45.2 626.8,45.1 638.2,45.1 649.6,45.1 661.1,45.1 672.5,45.1 683.9,45.1 695.3,45.1 706.7,45.1 718.1,45.1 729.5,45.1 740.9,45.1 752.3,45.1 763.7,45.1 775.1,45.1 786.5,45.0 798.0,45.0 809.4,45.0 820.8,45.0 832.2,45.0 843.6,45.0 855.0,45.0" fill="none" stroke="#2e7d32" stroke-width="1"/>
<text x="285" y="352" fill="#2e7d32" font-family="sans-serif" font-size="11">joint_LHTibia</text>
<polyline points="45.0,45.2 56.4,45.2 67.8,45.2 79.2,45.2 90.6,45.2 102.0,45.2 113.5,45.2 124.9,45.2 136.3,45.2 147.7,45.2 159.1,45.2 170.5,45.2 181.9,45.2 193.3,45.2 204.7,45.2 216.1,45.2 227.5,45.2 238.9,45.2 250.4,45.2 261.8,45.2 273.2,45.2 284.6,45.2 296.0,45.2 307.4,45.2 318.8,45.2 330.2,45.2 341.6,45.2 353.0,45.2 364.4,45.2 375.8,45.2 387.3,45.2 398.7,45.2 410.1,45.2 421.5,45.2 432.9,45.2 444.3,45.2 455.7,45.2 467.1,45.2 478.5,45.2 489.9,45.2 501.3,45.2 512.7,45.2 524.2,45.2 535.6,45.2 547.0,45.2 558.4,45.2 569.8,45.2 581.2,45.2 592.6,45.2 604.0,45.2 615.4,45.2 626.8,45.2 638.2,45.2 649.6,45.2 661.1,45.2 672.5,45.2 683.9,45.2 695.3,45.2 706.7,45.2 718.1,45.2 729.5,45.2 740.9,45.2 752.3,45.2 763.7,45.2 775.1,45.2 786.5,45.2 798.0,45.2 809.4,45.2 820.8,45.2 832.2,45.2 843.6,45.2 855.0,45.2" fill="none" stroke="#6a1b9a" stroke-width="1"/>
<text x="405" y="352" fill="#6a1b9a" font-family="sans-serif" font-size="11">joint_RFTibia</text>
<polyline points="45.0,45.2 56.4,45.2 67.8,45.2 79.2,45.2 90.6,45.2 102.0,45.2 113.5,45.2 124.9,45.2 136.3,45.2 147.7,45.2 159.1,45.2 170.5,45.2 181.9,45.2 193.3,45.2 204.7,45.2 216.1,45.2 227.5,45.2 238.9,45.2 250.4,45.2 261.8,45.2 273.2,45.2 284.6,45.2 296.0,45.2 307.4,45.2 318.8,45.2 330.2,45.2 341.6,45.2 353.0,45.2 364.4,45.2 375.8,45.2 387.3,45.2 398.7,45.2 410.1,45.2 421.5,45.3 432.9,45.3 444.3,45.3 455.7,45.3 467.1,45.3 478.5,45.3 489.9,45.3 501.3,45.3 512.7,45.3 524.2,45.3 535.6,45.3 547.0,45.3 558.4,45.3 569.8,45.4 581.2,45.4 592.6,45.4 604.0,45.4 615.4,45.4 626.8,45.4 638.2,45.4 649.6,45.4 661.1,45.4 672.5,45.4 683.9,45.5 695.3,45.5 706.7,45.5 718.1,45.5 729.5,45.5 740.9,45.5 752.3,45.5 763.7,45.5 775.1,45.5 786.5,45.6 798.0,45.6 809.4,45.6 820.8,45.6 832.2,45.6 843.6,45.6 855.0,45.6" fill="none" stroke="#ef6c00" stroke-width="1"/>
<text x="525" y="352" fill="#ef6c00" font-family="sans-serif" font-size="11">joint_RMTibia</text>
<polyline points="45.0,45.2 56.4,45.2 67.8,45.2 79.2,45.2 90.6,45.2 102.0,45.2 113.5,45.2 124.9,45.2 136.3,45.2 147.7,45.2 159.1,45.2 170.5,45.2 181.9,45.2 193.3,45.2 204.7,45.2 216.1,45.2 227.5,45.2 238.9,45.2 250.4,45.2 261.8,45.2 273.2,45.2 284.6,45.2 296.0,45.2 307.4,45.2 318.8,45.2 330.2,45.2 341.6,45.2 353.0,45.2 364.4,45.2 375.8,45.2 387.3,45.2 398.7,45.2 410.1,45.2 421.5,45.2 432.9,45.3 444.3,45.3 455.7,45.3 467.1,45.3 478.5,45.3 489.9,45.3 501.3,45.3 512.7,45.3 524.2,45.3 535.6,45.3 547.0,45.3 558.4,45.3 569.8,45.3 581.2,45.3 592.6,45.3 604.0,45.3 615.4,45.3 626.8,45.3 638.2,45.3 649.6,45.4 661.1,45.4 672.5,45.4 683.9,45.4 695.3,45.4 706.7,45.4 718.1,45.4 729.5,45.4 740.9,45.4 752.3,45.4 763.7,45.4 775.1,45.4 786.5,45.4 798.0,45.4 809.4,45.4 820.8,45.5 832.2,45.5 843.6,45.5 855.0,45.5" fill="none" stroke="#00838f" stroke-width="1"/>
<text x="645" y="352" fill="#00838f" font-family="sans-serif" font-size="11">joint_RHTibia</text>
<polyline points="45.0,315.0 56.4,315.0 67.8,315.0 79.2,315.0 90.6,314.9 102.0,314.9 113.5,314.9 124.9,314.9 136.3,314.9 147.7,314.9 159.1,314.8 170.5,314.8 181.9,314.8 193.3,314.8 204.7,314.8 216.1,314.7 227.5,314.7 238.9,314.7 250.4,314.7 261.8,314.7 273.2,314.7 284.6,314.6 296.0,314.6 307.4,314.6 318.8,314.6 330.2,314.6 341.6,314.5 353.0,314.5 364.4,314.5 375.8,314.5 387.3,314.5 398.7,314.4 410.1,314.4 421.5,314.4 432.9,314.4 444.3,314.4 455.7,314.3 467.1,314.3 478.5,314.3 489.9,314.3 501.3,314.2 512.7,314.2 524.2,314.2 535.6,314.2 547.0,314.2 558.4,314.1 569.8,314.1 581.2,314.1 592.6,314.1 604.0,314.0 615.4,314.0 626.8,314.0 638.2,314.0 649.6,314.0 661.1,313.9 672.5,313.9 683.9,313.9 695.3,313.9 706.7,313.8 718.1,313.8 729.5,313.8 740.9,313.8 752.3,313.8 763.7,313.7 775.1,313.7 786.5,313.7 798.0,313.7 809.4,313.6 820.8,313.6 832.2,313.6 843.6,313.6 855.0,313.5" fill="none" stroke="#5d4037" stroke-width="1"/>
<text x="45" y="338" fill="#5d4037" font-family="sans-serif" font-size="11">joint_LFFemur</text>
<polyline points="45.0,252.7 56.4,252.7 67.8,252.7 79.2,252.7 90.6,252.7 102.0,252.7 113.5,252.7 124.9,252.7 136.3,252.7 147.7,252.6 159.1,252.6 170.5,252.6 181.9,252.6 193.3,252.6 204.7,252.6 216.1,252.6 227.5,252.5 238.9,252.5 250.4,252.5 261.8,252.5 273.2,252.5 284.6,252.5 296.0,252.5 307.4,252.4 318.8,252.4 330.2,252.4 341.6,252.4 353.0,252.4 364.4,252.4 375.8,252.4 387.3,252.4 398.7,252.5 410.1,252.6 421.5,252.6 432.9,252.7 444.3,252.7 455.7,252.8 467.1,252.8 478.5,252.9 489.9,253.0 501.3,253.0 512.7,253.1 524.2,253.1 535.6,253.2 547.0,253.3 558.4,253.3 569.8,253.4 581.2,253.4 592.6,253.5 604.0,253.6 615.4,253.6 626.8,253.7 638.2,253.8 649.6,253.9 661.1,253.9 672.5,254.0 683.9,254.0 695.3,254.1 706.7,254.2 718.1,254.2 729.5,254.3 740.9,254.4 752.3,254.4 763.7,254.5 775.1,254.5 786.5,254.6 798.0,254.7 809.4,254.7 820.8,254.8 832.2,254.9 843.6,254.9 855.0,255.0" fill="none" stroke="#1565c0" stroke-width="1"/>
<text x="165" y="338" fill="#1565c0" font-family="sans-serif" font-size="11">joint_LMFemur</text>
<polyline points="45.0,252.7 56.4,252.7 67.8,252.7 79.2,252.7 90.6,252.7 102.0,252.7 113.5,252.7 124.9,252.7 136.3,252.7 147.7,252.6 159.1,252.6 170.5,252.6 181.9,252.6 193.3,252.6 204.7,252.6 216.1,252.6 227.5,252.6 238.9,252.5 250.4,252.5 261.8,252.5 273.2,252.5 284.6,252.5 296.0,252.5 307.4,252.5 318.8,252.4 330.2,252.4 341.6,252.4 353.0,252.4 364.4,252.4 375.8,252.4 387.3,252.4 398.7,252.3 410.1,252.3 421.5,252.3 432.9,252.3 444.3,252.3 455.7,252.2 467.1,252.2 478.5,252.2 489.9,252.2 501.3,252.1 512.7,252.1 524.2,252.1 535.6,252.1 547.0,252.0 558.4,252.0 569.8,252.0 581.2,252.0 592.6,251.9 604.0,251.9 615.4,251.9 626.8,251.8 638.2,251.8 649.6,251.8 661.1,251.8 672.5,251.7 683.9,251.7 695.3,251.7 706.7,251.6 718.1,251.6 729.5,251.6 740.9,251.6 752.3,251.5 763.7,251.5 775.1,251.5 786.5,251.4 798.0,251.4 809.4,251.4 820.8,251.3 832.2,251.3 843.6,251.3 855.0,251.2" fill="none" stroke="#c62828" stroke-width="1"/>
<text x="285" y="338" fill="#c62828" font-family="sans-serif" font-size="11">joint_LHFemur</text>
<polyline points="45.0,252.7 56.4,252.7 67.8,252.7 79.2,252.7 90.6,252.7 102.0,252.7 113.5,252.7 124.9,252.7 136.3,252.7 147.7,252.6 159.1,252.6 170.5,252.6 181.9,252.6 193.3,252.6 204.7,252.6 216.1,252.6 227.5,252.5 238.9,252.5 250.4,252.5 261.8,252.5 273.2,252.5 284.6,252.5 296.0,252.5 307.4,252.4 318.8,252.4 330.2,252.4 341.6,252.4 353.0,252.4 364.4,252.4 375.8,252.4 387.3,252.3 398.7,252.3 410.1,252.3 421.5,252.3 432.9,252.3 444.3,252.3 455.7,252.3 467.1,252.3 478.5,252.3 489.9,252.3 501.3,252.3 512.7,252.3 524.2,252.3 535.6,252.3 547.0,252.3 558.4,252.3 569.8,252.3 581.2,252.3 592.6,252.3 604.0,252.3 615.4,252.3 626.8,252.3 638.2,252.4 649.6,252.4 661.1,252.4 672.5,252.4 683.9,252.4 695.3,252.4 706.7,252.4 718.1,252.4 729.5,252.4 740.9,252.4 752.3,252.4 763.7,252.4 775.1,252.4 786.5,252.4 798.0,252.4 809.4,252.4 820.8,252.5 832.2,252.5 843.6,252.5 855.0,252.5" fill="none" stroke="#2e7d32" stroke-width="1"/>
<text x="405" y="338" fill="#2e7d32" font-family="sans-serif" font-size="11">joint_RMFemur</text>
<polyline points="45.0,252.7 56.4,252.7 67.8,252.7 79.2,252.7 90.6,252.7 102.0,252.7 113.5,252.7 124.9,252.7 136.3,252.7 147.7,252.6 159.1,252.6 170.5,252.6 181.9,252.6 193.3,252.6 204.7,252.6 216.1,252.6 227.5,252.6 238.9,252.5 250.4,252.5 261.8,252.5 273.2,252.5 284.6,252.5 296.0,252.5 307.4,252.5 318.8,252.4 330.2,252.4 341.6,252.4 353.0,252.4 364.4,252.4 375.8,252.4 387.3,252.4 398.7,252.3 410.1,252.3 421.5,252.3 432.9,252.3 444.3,252.3 455.7,252.3 467.1,252.3 478.5,252.3 489.9,252.3 501.3,252.3 512.7,252.3 524.2,252.3 535.6,252.2 547.0,252.2 558.4,252.2 569.8,252.2 581.2,252.2 592.6,252.2 604.0,252.2 615.4,252.2 626.8,252.2 638.2,252.2 649.6,252.2 661.1,252.2 672.5,252.2 683.9,252.2 695.3,252.2 706.7,252.2 718.1,252.2 729.5,252.2 740.9,252.2 752.3,252.2 763.7,252.2 775.1,252.2 786.5,252.2 798.0,252.2 809.4,252.2 820.8,252.2 832.2,252.2 843.6,252.2 855.0,252.2" fill="none" stroke="#6a1b9a" stroke-width="1"/>
<text x="525" y="338" fill="#6a1b9a" font-family="sans-serif" font-size="11">joint_RHFemur</text>
</svg>